M48
METRIC,LZ,000.000
;FILE_FORMAT=3:3
;TYPE=PLATED
;Layer: PTH_Through
;EasyEDA v6.5.38, 2023-12-02 23:03:57
;3574156a907d4d7c87788ecda130693a,c7ad1a84f3dd4ba2a6b1e1313e4bac77,10
;Gerber Generator version 0.2
;Holesize 1 = 0.305 mm
T01C0.305
;Holesize 2 = 0.306 mm
T02C0.306
;Holesize 3 = 0.450 mm
T03C0.450
;Holesize 4 = 0.501 mm
T04C0.501
;Holesize 5 = 0.701 mm
T05C0.701
;Holesize 6 = 0.901 mm
T06C0.901
;Holesize 7 = 1.301 mm
T07C1.301
;Holesize 8 = 3.501 mm
T08C3.501
%
G05
G90
T01
X-001278Y007374
X-001278Y008374
X-002278Y008374
X-002278Y007374
X002794Y-000635
X-003937Y011303
X-008128Y011303
T02
X-010287Y002921
X007874Y-004318
X007874Y-008001
X004826Y002032
X011684Y-006985
X000889Y-000762
X000762Y000635
X005842Y002413
X012573Y-005715
X010668Y007239
X018161Y008763
X024511Y-009017
X024511Y-011557
X005461Y-012192
X003810Y-009271
X003683Y-006477
X001778Y004826
X003683Y-004953
X011811Y010287
X006731Y010595
T03
X-013654Y006679
X-013654Y005729
X-013654Y003879
X-013654Y002979
X-013654Y002079
X-013654Y001129
X-013654Y000179
X-012254Y000179
X-012254Y001129
X-012254Y002979
X-012254Y003879
X-012254Y004779
X-012254Y005729
X-012254Y006679
T04
X-002032Y005969
X003683Y-003048
X001651Y003302
X014859Y010541
X015875Y008890
X015875Y001524
X025527Y-010160
T05
X-011024Y000929G85X-011024Y001929
X-011024Y004929G85X-011024Y005929
X-014884Y000929G85X-014884Y001929
X-014884Y004929G85X-014884Y005929
T06
X010509Y013716
X006509Y013716
X008516Y013716
T07
X-011049Y-009743
X-011049Y-004735
X004409Y013716
X012609Y013716
T08
X-017907Y003556
X031115Y014605
X030861Y-010160
M30
