G04 Layer: BottomSilkscreenLayer*
G04 EasyEDA v6.5.38, 2023-12-02 23:03:57*
G04 3574156a907d4d7c87788ecda130693a,c7ad1a84f3dd4ba2a6b1e1313e4bac77,10*
G04 Gerber Generator version 0.2*
G04 Scale: 100 percent, Rotated: No, Reflected: No *
G04 Dimensions in millimeters *
G04 leading zeros omitted , absolute positions ,4 integer and 5 decimal *
%FSLAX45Y45*%
%MOMM*%

%ADD10C,0.1524*%
%ADD11C,0.1999*%
%ADD12C,0.2540*%
%ADD13C,0.3000*%

%LPD*%
D10*
X-52577Y-1129792D02*
G01*
X-47243Y-1119378D01*
X-36829Y-1108963D01*
X-26670Y-1103884D01*
X-5841Y-1103884D01*
X4572Y-1108963D01*
X14986Y-1119378D01*
X20320Y-1129792D01*
X25400Y-1145539D01*
X25400Y-1171447D01*
X20320Y-1186942D01*
X14986Y-1197355D01*
X4572Y-1207770D01*
X-5841Y-1212850D01*
X-26670Y-1212850D01*
X-36829Y-1207770D01*
X-47243Y-1197355D01*
X-52577Y-1186942D01*
X-86868Y-1124712D02*
G01*
X-97281Y-1119378D01*
X-112775Y-1103884D01*
X-112775Y-1212850D01*
X622300Y-1116584D02*
G01*
X622300Y-1225550D01*
X622300Y-1116584D02*
G01*
X575563Y-1116584D01*
X560070Y-1121663D01*
X554736Y-1126997D01*
X549656Y-1137412D01*
X549656Y-1147826D01*
X554736Y-1158239D01*
X560070Y-1163320D01*
X575563Y-1168400D01*
X622300Y-1168400D01*
X585977Y-1168400D02*
G01*
X549656Y-1225550D01*
X447802Y-1152905D02*
G01*
X452881Y-1168400D01*
X463295Y-1178813D01*
X478790Y-1184147D01*
X484124Y-1184147D01*
X499618Y-1178813D01*
X510031Y-1168400D01*
X515365Y-1152905D01*
X515365Y-1147826D01*
X510031Y-1132078D01*
X499618Y-1121663D01*
X484124Y-1116584D01*
X478790Y-1116584D01*
X463295Y-1121663D01*
X452881Y-1132078D01*
X447802Y-1152905D01*
X447802Y-1178813D01*
X452881Y-1204976D01*
X463295Y-1220470D01*
X478790Y-1225550D01*
X489204Y-1225550D01*
X504952Y-1220470D01*
X510031Y-1210055D01*
X355600Y-1116584D02*
G01*
X355600Y-1225550D01*
X355600Y-1116584D02*
G01*
X308863Y-1116584D01*
X293370Y-1121663D01*
X288036Y-1126997D01*
X282956Y-1137412D01*
X282956Y-1147826D01*
X288036Y-1158239D01*
X293370Y-1163320D01*
X308863Y-1168400D01*
X355600Y-1168400D01*
X319277Y-1168400D02*
G01*
X282956Y-1225550D01*
X248665Y-1137412D02*
G01*
X238252Y-1132078D01*
X222504Y-1116584D01*
X222504Y-1225550D01*
X157225Y-1116584D02*
G01*
X172720Y-1121663D01*
X183134Y-1137412D01*
X188213Y-1163320D01*
X188213Y-1178813D01*
X183134Y-1204976D01*
X172720Y-1220470D01*
X157225Y-1225550D01*
X146811Y-1225550D01*
X131063Y-1220470D01*
X120650Y-1204976D01*
X115570Y-1178813D01*
X115570Y-1163320D01*
X120650Y-1137412D01*
X131063Y-1121663D01*
X146811Y-1116584D01*
X157225Y-1116584D01*
X-254000Y-62484D02*
G01*
X-254000Y-171450D01*
X-254000Y-62484D02*
G01*
X-300736Y-62484D01*
X-316229Y-67563D01*
X-321563Y-72897D01*
X-326644Y-83312D01*
X-326644Y-93726D01*
X-321563Y-104139D01*
X-316229Y-109220D01*
X-300736Y-114300D01*
X-254000Y-114300D01*
X-290322Y-114300D02*
G01*
X-326644Y-171450D01*
X-366268Y-88392D02*
G01*
X-366268Y-83312D01*
X-371347Y-72897D01*
X-376681Y-67563D01*
X-387095Y-62484D01*
X-407670Y-62484D01*
X-418084Y-67563D01*
X-423418Y-72897D01*
X-428497Y-83312D01*
X-428497Y-93726D01*
X-423418Y-104139D01*
X-413004Y-119634D01*
X-360934Y-171450D01*
X-433831Y-171450D01*
X330200Y26415D02*
G01*
X330200Y-51562D01*
X325120Y-67055D01*
X314706Y-77470D01*
X298958Y-82550D01*
X288543Y-82550D01*
X273050Y-77470D01*
X262636Y-67055D01*
X257556Y-51562D01*
X257556Y26415D01*
X212852Y26415D02*
G01*
X155702Y26415D01*
X186690Y-15239D01*
X171195Y-15239D01*
X160781Y-20320D01*
X155702Y-25400D01*
X150368Y-41147D01*
X150368Y-51562D01*
X155702Y-67055D01*
X166115Y-77470D01*
X181609Y-82550D01*
X197104Y-82550D01*
X212852Y-77470D01*
X217931Y-72389D01*
X223265Y-61976D01*
D11*
X-154279Y-820826D02*
G01*
X-154279Y-688822D01*
X52730Y-688822D01*
X52730Y-820826D01*
X-154279Y-934034D02*
G01*
X-154279Y-1066037D01*
X52730Y-1066037D01*
X52730Y-934034D01*
X442620Y-833526D02*
G01*
X442620Y-701522D01*
X649630Y-701522D01*
X649630Y-833526D01*
X442620Y-946734D02*
G01*
X442620Y-1078737D01*
X649630Y-1078737D01*
X649630Y-946734D01*
X150520Y-833526D02*
G01*
X150520Y-701522D01*
X357530Y-701522D01*
X357530Y-833526D01*
X150520Y-946734D02*
G01*
X150520Y-1078737D01*
X357530Y-1078737D01*
X357530Y-946734D01*
D12*
X-228587Y-900511D02*
G01*
X-228587Y-1179911D01*
X-228587Y-1179908D02*
G01*
X-634987Y-1179908D01*
X-634987Y-887808D01*
X-647687Y-521906D02*
G01*
X-647687Y-242506D01*
X-228587Y-242506D01*
X-228587Y-534606D01*
D10*
X418840Y-115679D02*
G01*
X114559Y-115679D01*
X114559Y-620920D01*
X418840Y-620920D01*
X418840Y-115679D01*
D13*
G75*
G01
X358623Y-177800D02*
G03X358623Y-177800I-15011J0D01*
G75*
G01
X558952Y-103149D02*
G03X558952Y-103149I-15011J0D01*
M02*
