G04 Layer: TopSolderMaskLayer*
G04 EasyEDA v6.5.38, 2023-12-02 23:03:57*
G04 3574156a907d4d7c87788ecda130693a,c7ad1a84f3dd4ba2a6b1e1313e4bac77,10*
G04 Gerber Generator version 0.2*
G04 Scale: 100 percent, Rotated: No, Reflected: No *
G04 Dimensions in millimeters *
G04 leading zeros omitted , absolute positions ,4 integer and 5 decimal *
%FSLAX45Y45*%
%MOMM*%

%AMMACRO1*1,1,$1,$2,$3*1,1,$1,$4,$5*1,1,$1,0-$2,0-$3*1,1,$1,0-$4,0-$5*20,1,$1,$2,$3,$4,$5,0*20,1,$1,$4,$5,0-$2,0-$3,0*20,1,$1,0-$2,0-$3,0-$4,0-$5,0*20,1,$1,0-$4,0-$5,$2,$3,0*4,1,4,$2,$3,$4,$5,0-$2,0-$3,0-$4,0-$5,$2,$3,0*%
%ADD10R,2.2016X1.0516*%
%ADD11R,1.0516X2.2016*%
%ADD12MACRO1,0.1016X0.665X0.665X0.665X-0.665*%
%ADD13MACRO1,0.2032X0.58X-0.725X-0.58X-0.725*%
%ADD14R,1.6532X1.3632*%
%ADD15MACRO1,0.1016X0.395X0.27X0.395X-0.27*%
%ADD16MACRO1,0.1016X-0.395X0.27X-0.395X-0.27*%
%ADD17MACRO1,0.1016X-0.395X-0.27X-0.395X0.27*%
%ADD18MACRO1,0.1016X0.395X-0.27X0.395X0.27*%
%ADD19MACRO1,0.1016X-0.27X0.395X0.27X0.395*%
%ADD20MACRO1,0.1016X-0.27X-0.395X0.27X-0.395*%
%ADD21MACRO1,0.1016X-0.864X0.7425X0.864X0.7425*%
%ADD22MACRO1,0.1016X-0.864X-0.7425X0.864X-0.7425*%
%ADD23MACRO1,0.1016X0.45X0.4X0.45X-0.4*%
%ADD24MACRO1,0.1016X0.7425X0.864X0.7425X-0.864*%
%ADD25MACRO1,0.1016X-0.7425X0.864X-0.7425X-0.864*%
%ADD26R,1.4516X1.5116*%
%ADD27MACRO1,0.1016X0.8X0.4X0.8X-0.4*%
%ADD28MACRO1,0.1016X1.65X1.2X1.65X-1.2*%
%ADD29MACRO1,0.1016X-1X1X1X1*%
%ADD30MACRO1,0.1016X0.25X-1.25X-0.25X-1.25*%
%ADD31MACRO1,0.1016X1.5X-1.6X-1.5X-1.6*%
%ADD32MACRO1,0.1016X0.6X-0.9X-0.6X-0.9*%
%ADD33C,2.1016*%
%ADD34MACRO1,0.1016X0.5X-0.4X-0.5X-0.4*%
%ADD35MACRO1,0.1016X-0.6885X0.5663X0.6885X0.5663*%
%ADD36MACRO1,0.1016X-0.6885X-0.5663X0.6885X-0.5663*%
%ADD37MACRO1,0.1016X0.2828X0.27X0.2828X-0.27*%
%ADD38MACRO1,0.1016X-0.2828X0.27X-0.2828X-0.27*%
%ADD39R,0.6416X0.6673*%
%ADD40MACRO1,0.1016X-0.27X0.2828X0.27X0.2828*%
%ADD41MACRO1,0.1016X-0.27X-0.2828X0.27X-0.2828*%
%ADD42MACRO1,0.1016X-0.2828X-0.27X-0.2828X0.27*%
%ADD43MACRO1,0.1016X0.2828X-0.27X0.2828X0.27*%
%ADD44R,0.9656X0.9081*%
%ADD45R,2.1016X1.4516*%
%ADD46MACRO1,0.1016X1X0.675X1X-0.675*%
%ADD47O,1.7015460000000002X1.4015720000000003*%
%ADD48O,2.101596X3.1015939999999995*%
%ADD49O,2.1395944X0.6755891999999999*%
%ADD50C,0.2850*%
%ADD51C,0.8016*%
%ADD52O,1.1015979999999999X2.101596*%
%ADD53C,3.2032*%

%LPD*%
D10*
G01*
X2766898Y-1154252D03*
G01*
X2766898Y-1027252D03*
G01*
X2766898Y-900252D03*
G01*
X2766898Y-773252D03*
G01*
X2766898Y-646252D03*
G01*
X2766898Y-519252D03*
G01*
X2766898Y-392252D03*
G01*
X2766898Y-265252D03*
G01*
X2766898Y-138252D03*
G01*
X2766898Y-11252D03*
G01*
X2766898Y115747D03*
G01*
X2766898Y242747D03*
G01*
X2766898Y369747D03*
G01*
X2766898Y496747D03*
D11*
G01*
X2438400Y646252D03*
G01*
X2311400Y646252D03*
G01*
X2184400Y646252D03*
G01*
X2057400Y646252D03*
G01*
X1930400Y646252D03*
G01*
X1803400Y646252D03*
G01*
X1676400Y646252D03*
G01*
X1549400Y646252D03*
G01*
X1422400Y646252D03*
G01*
X1295400Y646252D03*
D10*
G01*
X966901Y496747D03*
G01*
X966901Y369747D03*
G01*
X966901Y242747D03*
G01*
X966901Y115747D03*
G01*
X966901Y-11252D03*
G01*
X966901Y-138252D03*
G01*
X966901Y-265252D03*
G01*
X966901Y-392252D03*
G01*
X966901Y-519252D03*
G01*
X966901Y-646252D03*
G01*
X966901Y-773252D03*
G01*
X966901Y-900252D03*
G01*
X966901Y-1027252D03*
G01*
X966901Y-1154252D03*
D12*
G01*
X2016876Y-385842D03*
G01*
X2200374Y-385832D03*
G01*
X1833379Y-385832D03*
G01*
X1833379Y-569342D03*
G01*
X2016889Y-569342D03*
G01*
X2200374Y-569342D03*
G01*
X2200374Y-202347D03*
G01*
X2016889Y-202347D03*
G01*
X1833382Y-202347D03*
D13*
G01*
X-127000Y-88900D03*
G01*
X-330200Y-88900D03*
D14*
G01*
X533400Y-177800D03*
G01*
X533400Y25400D03*
D15*
G01*
X364594Y1041400D03*
D16*
G01*
X473605Y1041400D03*
D17*
G01*
X689505Y457200D03*
D18*
G01*
X580494Y457200D03*
D19*
G01*
X1917700Y1240894D03*
D20*
G01*
X1917700Y1349905D03*
D21*
G01*
X1511300Y1250449D03*
D22*
G01*
X1511300Y1568950D03*
D23*
G01*
X1041400Y869800D03*
G01*
X1041400Y1009799D03*
D24*
G01*
X-438650Y355600D03*
D25*
G01*
X-120149Y355600D03*
D26*
G01*
X-660400Y369696D03*
G01*
X-660400Y163703D03*
D27*
G01*
X-985304Y1220182D03*
G01*
X-985304Y1345168D03*
D28*
G01*
X-1275295Y1595208D03*
G01*
X-1275295Y970201D03*
D29*
G01*
X-293504Y1371600D03*
G01*
X166497Y1371600D03*
D30*
G01*
X-211902Y-479196D03*
G01*
X-111902Y-479196D03*
G01*
X-11902Y-479196D03*
G01*
X88099Y-479196D03*
G01*
X188099Y-479196D03*
G01*
X288099Y-479196D03*
D31*
G01*
X573100Y-689203D03*
G01*
X-496900Y-689203D03*
D32*
G01*
X598500Y685800D03*
G01*
X798499Y685800D03*
D33*
G01*
X-1104900Y-974344D03*
G01*
X-1104900Y-473455D03*
D34*
G01*
X-558098Y1466601D03*
G01*
X-788101Y1371605D03*
G01*
X-558101Y1276598D03*
D35*
G01*
X355600Y500273D03*
D36*
G01*
X355600Y693526D03*
D37*
G01*
X1772817Y1016000D03*
D38*
G01*
X1859382Y1016000D03*
D39*
G01*
X1752600Y1338681D03*
G01*
X1752600Y1252118D03*
D40*
G01*
X177800Y32917D03*
D41*
G01*
X177800Y119482D03*
D40*
G01*
X317500Y32917D03*
D41*
G01*
X317500Y119482D03*
D42*
G01*
X1478382Y889000D03*
D43*
G01*
X1391817Y889000D03*
D39*
G01*
X63500Y411581D03*
G01*
X63500Y325018D03*
D40*
G01*
X-838200Y617117D03*
D41*
G01*
X-838200Y703682D03*
D40*
G01*
X-838200Y401217D03*
D41*
G01*
X-838200Y487782D03*
D44*
G01*
X-635000Y1015136D03*
G01*
X-635000Y864463D03*
D45*
G01*
X2578100Y1057706D03*
G01*
X2578100Y1507693D03*
D46*
G01*
X2171700Y1495000D03*
G01*
X2171700Y1044999D03*
D47*
G01*
X1050899Y1371600D03*
G01*
X650900Y1371600D03*
G01*
X851560Y1371600D03*
D48*
G01*
X440893Y1371600D03*
G01*
X1260906Y1371600D03*
D49*
G01*
X-454710Y977900D03*
G01*
X-454710Y850900D03*
G01*
X-454710Y723900D03*
G01*
X-454710Y596900D03*
G01*
X99110Y977900D03*
G01*
X99110Y850900D03*
G01*
X99110Y723900D03*
G01*
X99110Y596900D03*
D29*
G01*
X-177800Y787400D03*
D50*
G01*
X290195Y856284D03*
G01*
X290195Y896289D03*
G01*
X330200Y856284D03*
G01*
X330200Y896289D03*
G01*
X370204Y856284D03*
G01*
X370204Y896289D03*
D51*
G01*
X-1365402Y667893D03*
G01*
X-1365402Y572896D03*
G01*
X-1365402Y387883D03*
G01*
X-1365402Y297891D03*
G01*
X-1365402Y207873D03*
G01*
X-1365402Y112877D03*
G01*
X-1365402Y17881D03*
G01*
X-1225397Y17881D03*
G01*
X-1225397Y112877D03*
G01*
X-1225397Y297891D03*
G01*
X-1225397Y387883D03*
G01*
X-1225397Y477875D03*
G01*
X-1225397Y572896D03*
G01*
X-1225397Y667893D03*
D52*
G01*
X-1102410Y142900D03*
G01*
X-1102410Y542899D03*
G01*
X-1488389Y142900D03*
G01*
X-1488389Y542899D03*
D53*
G01*
X-1790700Y355600D03*
G01*
X3111500Y1460500D03*
G01*
X3086100Y-1016000D03*
M02*
