G04 Layer: BottomLayer*
G04 EasyEDA v6.5.38, 2023-12-02 23:03:57*
G04 3574156a907d4d7c87788ecda130693a,c7ad1a84f3dd4ba2a6b1e1313e4bac77,10*
G04 Gerber Generator version 0.2*
G04 Scale: 100 percent, Rotated: No, Reflected: No *
G04 Dimensions in millimeters *
G04 leading zeros omitted , absolute positions ,4 integer and 5 decimal *
%FSLAX45Y45*%
%MOMM*%

%AMMACRO1*21,1,$1,$2,0,0,$3*%
%ADD10C,0.2540*%
%ADD11C,0.5000*%
%ADD12MACRO1,1.16X1.45X90.0000*%
%ADD13MACRO1,2.5X3.4X90.0000*%
%ADD14O,2.0450048X0.58801*%
%ADD15C,2.0000*%
%ADD16O,1.599946X1.2999720000000001*%
%ADD17O,1.9999959999999999X2.999994*%
%ADD18C,0.7000*%
%ADD19O,0.9999979999999999X1.9999959999999999*%
%ADD20C,3.0000*%
%ADD21C,0.6096*%
%ADD22C,1.0000*%
%ADD23C,0.6100*%
%ADD24C,0.0151*%

%LPD*%
G36*
X-1538732Y-1244600D02*
G01*
X-1542643Y-1243838D01*
X-1545894Y-1241602D01*
X-1548130Y-1238351D01*
X-1548892Y-1234440D01*
X-1548892Y23368D01*
X-1547926Y27635D01*
X-1545285Y31089D01*
X-1541424Y33121D01*
X-1537055Y33375D01*
X-1532991Y31750D01*
X-1526336Y27178D01*
X-1519732Y24028D01*
X-1519732Y86563D01*
X-1538732Y86563D01*
X-1542643Y87325D01*
X-1545894Y89560D01*
X-1548130Y92811D01*
X-1548892Y96723D01*
X-1548892Y189077D01*
X-1548130Y192989D01*
X-1545894Y196291D01*
X-1542643Y198475D01*
X-1538732Y199237D01*
X-1519732Y199237D01*
X-1519732Y261823D01*
X-1526336Y258622D01*
X-1532991Y254101D01*
X-1537055Y252475D01*
X-1541424Y252679D01*
X-1545285Y254711D01*
X-1547926Y258216D01*
X-1548892Y262483D01*
X-1548892Y423367D01*
X-1547926Y427634D01*
X-1545285Y431088D01*
X-1541424Y433120D01*
X-1537055Y433374D01*
X-1532991Y431749D01*
X-1526336Y427177D01*
X-1519732Y424027D01*
X-1519732Y486562D01*
X-1538732Y486562D01*
X-1542643Y487324D01*
X-1545894Y489559D01*
X-1548130Y492810D01*
X-1548892Y496722D01*
X-1548892Y589076D01*
X-1548130Y592988D01*
X-1545894Y596290D01*
X-1542643Y598474D01*
X-1538732Y599236D01*
X-1519732Y599236D01*
X-1519732Y661822D01*
X-1526336Y658622D01*
X-1532991Y654100D01*
X-1537055Y652475D01*
X-1541424Y652678D01*
X-1545285Y654710D01*
X-1547926Y658215D01*
X-1548892Y662482D01*
X-1548892Y1729232D01*
X-1548130Y1733143D01*
X-1545894Y1736394D01*
X-1542643Y1738630D01*
X-1538732Y1739392D01*
X2873146Y1739392D01*
X2877464Y1738426D01*
X2881020Y1735683D01*
X2883001Y1731721D01*
X2882900Y-1234440D01*
X2882138Y-1238351D01*
X2879902Y-1241602D01*
X2876651Y-1243838D01*
X2872740Y-1244600D01*
G37*

%LPC*%
G36*
X-601218Y-1172108D02*
G01*
X-262382Y-1172108D01*
X-256032Y-1171397D01*
X-250596Y-1169517D01*
X-245668Y-1166418D01*
X-241604Y-1162304D01*
X-238506Y-1157427D01*
X-236575Y-1151940D01*
X-235864Y-1145641D01*
X-235864Y-901496D01*
X-235102Y-897585D01*
X-232917Y-894283D01*
X-167335Y-828751D01*
X-163525Y-825652D01*
X-159816Y-824687D01*
X-156006Y-825144D01*
X-152603Y-827024D01*
X-150164Y-829970D01*
X-149047Y-833678D01*
X-148488Y-838453D01*
X-146608Y-843889D01*
X-143510Y-848817D01*
X-139395Y-852881D01*
X-134518Y-855980D01*
X-129032Y-857910D01*
X-122732Y-858621D01*
X21132Y-858621D01*
X27432Y-857910D01*
X32918Y-855980D01*
X37795Y-852881D01*
X41910Y-848817D01*
X45516Y-843076D01*
X47802Y-840536D01*
X50749Y-838860D01*
X54102Y-838301D01*
X145796Y-838301D01*
X149402Y-838962D01*
X152552Y-840892D01*
X154787Y-843787D01*
X155854Y-847344D01*
X156311Y-851153D01*
X158191Y-856589D01*
X161290Y-861517D01*
X165404Y-865581D01*
X170281Y-868680D01*
X175768Y-870610D01*
X182067Y-871321D01*
X325932Y-871321D01*
X332232Y-870610D01*
X337718Y-868680D01*
X342595Y-865581D01*
X346710Y-861517D01*
X349808Y-856589D01*
X351688Y-851153D01*
X352145Y-847344D01*
X353212Y-843787D01*
X355447Y-840892D01*
X358597Y-838962D01*
X362204Y-838301D01*
X437896Y-838301D01*
X441502Y-838962D01*
X444652Y-840892D01*
X446887Y-843787D01*
X447954Y-847344D01*
X448411Y-851153D01*
X450291Y-856589D01*
X453390Y-861517D01*
X457504Y-865581D01*
X462381Y-868680D01*
X467868Y-870610D01*
X474167Y-871321D01*
X553821Y-871321D01*
X557682Y-872083D01*
X560984Y-874268D01*
X585724Y-899007D01*
X587908Y-902309D01*
X588721Y-906221D01*
X588721Y-955243D01*
X637743Y-955243D01*
X641654Y-956005D01*
X644906Y-958240D01*
X687730Y-1001064D01*
X691184Y-1004214D01*
X694690Y-1006906D01*
X698449Y-1009294D01*
X702411Y-1011326D01*
X706475Y-1013053D01*
X710742Y-1014374D01*
X715060Y-1015339D01*
X719480Y-1015898D01*
X724103Y-1016101D01*
X812901Y-1016101D01*
X816813Y-1016863D01*
X820064Y-1019098D01*
X852830Y-1051864D01*
X856284Y-1055014D01*
X859790Y-1057706D01*
X863549Y-1060094D01*
X867511Y-1062126D01*
X871575Y-1063853D01*
X875842Y-1065174D01*
X880160Y-1066139D01*
X884580Y-1066698D01*
X889203Y-1066901D01*
X2492349Y-1066901D01*
X2496362Y-1067714D01*
X2499715Y-1070000D01*
X2502204Y-1072642D01*
X2511450Y-1079703D01*
X2521661Y-1085240D01*
X2532583Y-1089152D01*
X2544013Y-1091387D01*
X2555595Y-1091844D01*
X2567127Y-1090472D01*
X2578354Y-1087424D01*
X2588971Y-1082649D01*
X2598674Y-1076350D01*
X2607360Y-1068628D01*
X2614777Y-1059637D01*
X2620721Y-1049680D01*
X2625039Y-1038910D01*
X2627680Y-1027582D01*
X2628595Y-1016000D01*
X2627680Y-1004417D01*
X2625039Y-993089D01*
X2620721Y-982319D01*
X2614777Y-972362D01*
X2607360Y-963371D01*
X2598674Y-955649D01*
X2588971Y-949350D01*
X2578354Y-944575D01*
X2567127Y-941527D01*
X2555595Y-940155D01*
X2544013Y-940612D01*
X2532583Y-942848D01*
X2521661Y-946759D01*
X2511450Y-952296D01*
X2502204Y-959358D01*
X2499715Y-961999D01*
X2496362Y-964285D01*
X2492349Y-965098D01*
X2490673Y-965098D01*
X2486558Y-964184D01*
X2483104Y-961694D01*
X2481021Y-957986D01*
X2480614Y-953769D01*
X2481986Y-949706D01*
X2484882Y-946607D01*
X2487320Y-944880D01*
X2494280Y-937920D01*
X2499918Y-929894D01*
X2504084Y-921003D01*
X2506624Y-911504D01*
X2507488Y-901700D01*
X2506624Y-891895D01*
X2504084Y-882396D01*
X2499918Y-873506D01*
X2494280Y-865479D01*
X2487320Y-858519D01*
X2479294Y-852881D01*
X2470404Y-848715D01*
X2460904Y-846175D01*
X2451100Y-845312D01*
X2441295Y-846175D01*
X2431796Y-848715D01*
X2422906Y-852881D01*
X2414879Y-858519D01*
X2413254Y-860094D01*
X2409952Y-862330D01*
X2406091Y-863092D01*
X1887118Y-863092D01*
X1883206Y-862330D01*
X1879904Y-860094D01*
X1857705Y-837895D01*
X1855470Y-834593D01*
X1854707Y-830681D01*
X1854707Y831291D01*
X1855470Y835152D01*
X1857705Y838453D01*
X1859280Y840079D01*
X1864918Y848106D01*
X1869084Y856996D01*
X1871624Y866495D01*
X1872488Y876300D01*
X1871624Y886104D01*
X1869084Y895603D01*
X1864918Y904494D01*
X1859280Y912520D01*
X1852320Y919480D01*
X1844293Y925118D01*
X1835404Y929284D01*
X1825904Y931824D01*
X1816100Y932687D01*
X1806295Y931824D01*
X1796796Y929284D01*
X1787906Y925118D01*
X1779879Y919480D01*
X1772920Y912520D01*
X1767281Y904494D01*
X1763115Y895603D01*
X1760575Y886104D01*
X1759712Y876300D01*
X1760575Y866495D01*
X1763115Y856996D01*
X1767281Y848106D01*
X1772920Y840079D01*
X1774494Y838453D01*
X1776730Y835152D01*
X1777492Y831291D01*
X1777492Y-850392D01*
X1778304Y-858418D01*
X1780489Y-865632D01*
X1784045Y-872337D01*
X1789175Y-878535D01*
X1839264Y-928624D01*
X1845462Y-933754D01*
X1852168Y-937310D01*
X1859381Y-939495D01*
X1867407Y-940308D01*
X2406091Y-940308D01*
X2409952Y-941069D01*
X2413254Y-943305D01*
X2417318Y-946607D01*
X2420213Y-949706D01*
X2421585Y-953769D01*
X2421178Y-957986D01*
X2419096Y-961694D01*
X2415641Y-964184D01*
X2411526Y-965098D01*
X934821Y-965098D01*
X930960Y-964336D01*
X927658Y-962101D01*
X925423Y-958799D01*
X924661Y-954938D01*
X925423Y-951026D01*
X927658Y-947724D01*
X962964Y-912469D01*
X966114Y-909015D01*
X968806Y-905510D01*
X971194Y-901750D01*
X973226Y-897788D01*
X974953Y-893724D01*
X976274Y-889457D01*
X977239Y-885139D01*
X977798Y-880719D01*
X978001Y-876096D01*
X978001Y-393903D01*
X977798Y-389280D01*
X977239Y-384860D01*
X976274Y-380542D01*
X974953Y-376275D01*
X973226Y-372211D01*
X970940Y-367842D01*
X969822Y-363880D01*
X970330Y-359867D01*
X972413Y-356311D01*
X975715Y-353923D01*
X979728Y-352958D01*
X983742Y-353720D01*
X987145Y-355955D01*
X1126794Y-495604D01*
X1129030Y-498906D01*
X1129792Y-502818D01*
X1129792Y-653491D01*
X1129030Y-657352D01*
X1126794Y-660654D01*
X1125220Y-662279D01*
X1119581Y-670306D01*
X1115415Y-679196D01*
X1112875Y-688695D01*
X1112012Y-698500D01*
X1112875Y-708304D01*
X1115415Y-717804D01*
X1119581Y-726694D01*
X1125220Y-734720D01*
X1132179Y-741680D01*
X1140206Y-747318D01*
X1149096Y-751484D01*
X1158595Y-754024D01*
X1168400Y-754888D01*
X1178204Y-754024D01*
X1187704Y-751484D01*
X1196594Y-747318D01*
X1204620Y-741680D01*
X1211580Y-734720D01*
X1217218Y-726694D01*
X1221384Y-717804D01*
X1223924Y-708304D01*
X1224788Y-698500D01*
X1223924Y-688695D01*
X1221384Y-679196D01*
X1217218Y-670306D01*
X1211580Y-662279D01*
X1210005Y-660654D01*
X1207770Y-657352D01*
X1207008Y-653491D01*
X1207008Y-624332D01*
X1207973Y-620064D01*
X1210614Y-616559D01*
X1214526Y-614527D01*
X1218946Y-614324D01*
X1223010Y-616051D01*
X1229106Y-620318D01*
X1237996Y-624484D01*
X1247495Y-627024D01*
X1257300Y-627888D01*
X1267104Y-627024D01*
X1276604Y-624484D01*
X1285494Y-620318D01*
X1293520Y-614680D01*
X1300480Y-607720D01*
X1306118Y-599694D01*
X1310284Y-590804D01*
X1312824Y-581304D01*
X1313688Y-571500D01*
X1312824Y-561695D01*
X1310284Y-552196D01*
X1306118Y-543306D01*
X1300480Y-535279D01*
X1298905Y-533654D01*
X1296670Y-530352D01*
X1295908Y-526491D01*
X1295908Y-432308D01*
X1295095Y-424281D01*
X1292910Y-417068D01*
X1289354Y-410362D01*
X1284224Y-404164D01*
X643331Y236728D01*
X641350Y239623D01*
X640435Y243027D01*
X639724Y251104D01*
X637184Y260604D01*
X633018Y269494D01*
X627380Y277520D01*
X620420Y284480D01*
X612394Y290118D01*
X603504Y294284D01*
X594004Y296824D01*
X584200Y297688D01*
X574395Y296824D01*
X564896Y294284D01*
X556006Y290118D01*
X547979Y284480D01*
X541020Y277520D01*
X535381Y269494D01*
X531215Y260604D01*
X529844Y255320D01*
X528116Y251866D01*
X525221Y249275D01*
X521614Y247904D01*
X517702Y248056D01*
X514197Y249631D01*
X510793Y252018D01*
X501904Y256184D01*
X492404Y258724D01*
X482600Y259588D01*
X472795Y258724D01*
X463296Y256184D01*
X454406Y252018D01*
X446379Y246379D01*
X439420Y239420D01*
X433781Y231394D01*
X429615Y222504D01*
X427075Y213004D01*
X426212Y203200D01*
X427075Y193395D01*
X429615Y183896D01*
X433781Y175006D01*
X439420Y166979D01*
X446379Y160020D01*
X454406Y154381D01*
X463296Y150215D01*
X472795Y147675D01*
X480872Y146964D01*
X484276Y146050D01*
X487172Y144068D01*
X875944Y-244754D01*
X878179Y-248158D01*
X878941Y-252171D01*
X877976Y-256184D01*
X875588Y-259486D01*
X872032Y-261569D01*
X868019Y-262077D01*
X864057Y-260959D01*
X859688Y-258673D01*
X855624Y-256946D01*
X851357Y-255625D01*
X847039Y-254660D01*
X842619Y-254101D01*
X837996Y-253898D01*
X640181Y-253898D01*
X629158Y-251104D01*
X625297Y-249072D01*
X622604Y-245617D01*
X621639Y-241300D01*
X622604Y-236982D01*
X625297Y-233527D01*
X629158Y-231495D01*
X635711Y-229717D01*
X644448Y-225653D01*
X652322Y-220116D01*
X659130Y-213309D01*
X664667Y-205435D01*
X668731Y-196697D01*
X671220Y-187401D01*
X672084Y-177800D01*
X671220Y-168198D01*
X668731Y-158902D01*
X664667Y-150164D01*
X659130Y-142290D01*
X652322Y-135483D01*
X644448Y-129946D01*
X635711Y-125882D01*
X626414Y-123393D01*
X616356Y-122478D01*
X471525Y-122478D01*
X461518Y-123393D01*
X452221Y-125882D01*
X443484Y-129946D01*
X435559Y-135483D01*
X428751Y-142290D01*
X423214Y-150164D01*
X419150Y-158902D01*
X416661Y-168198D01*
X415848Y-177800D01*
X416661Y-187401D01*
X419150Y-196697D01*
X423214Y-205435D01*
X428751Y-213309D01*
X435559Y-220116D01*
X443484Y-225653D01*
X452221Y-229717D01*
X458724Y-231495D01*
X462635Y-233527D01*
X465328Y-236982D01*
X466242Y-241300D01*
X465328Y-245617D01*
X462635Y-249072D01*
X458724Y-251104D01*
X447751Y-253898D01*
X428751Y-253898D01*
X425145Y-253238D01*
X421995Y-251307D01*
X414274Y-244449D01*
X404571Y-238150D01*
X393954Y-233375D01*
X382727Y-230327D01*
X371195Y-228955D01*
X359613Y-229412D01*
X348183Y-231648D01*
X337261Y-235559D01*
X327050Y-241096D01*
X317804Y-248158D01*
X309778Y-256540D01*
X303072Y-266039D01*
X297942Y-276453D01*
X294436Y-287528D01*
X292658Y-299008D01*
X292658Y-310591D01*
X294436Y-322072D01*
X297942Y-333146D01*
X303072Y-343560D01*
X309778Y-353060D01*
X317804Y-361442D01*
X327050Y-368503D01*
X337362Y-374091D01*
X340715Y-377037D01*
X342493Y-381101D01*
X342392Y-385521D01*
X340360Y-389483D01*
X336854Y-392226D01*
X332536Y-393192D01*
X274218Y-393192D01*
X270306Y-392430D01*
X267004Y-390194D01*
X219405Y-342595D01*
X217170Y-339293D01*
X216408Y-335381D01*
X216408Y-188468D01*
X217170Y-184556D01*
X219405Y-181305D01*
X222656Y-179070D01*
X226567Y-178308D01*
X342392Y-178308D01*
X350418Y-177495D01*
X357632Y-175310D01*
X364337Y-171754D01*
X370535Y-166624D01*
X446024Y-91135D01*
X451154Y-84937D01*
X454710Y-78232D01*
X456895Y-71018D01*
X457708Y-62991D01*
X457708Y12192D01*
X456895Y20218D01*
X454710Y27432D01*
X451154Y34137D01*
X446024Y40335D01*
X395935Y90424D01*
X389737Y95554D01*
X383032Y99110D01*
X375818Y101295D01*
X367792Y102108D01*
X121208Y102108D01*
X117348Y102870D01*
X114046Y105105D01*
X112420Y106680D01*
X104394Y112318D01*
X95504Y116484D01*
X86004Y119024D01*
X76200Y119887D01*
X66395Y119024D01*
X56896Y116484D01*
X48006Y112318D01*
X39979Y106680D01*
X33020Y99720D01*
X27381Y91694D01*
X23215Y82804D01*
X20675Y73304D01*
X19812Y63500D01*
X20675Y53695D01*
X23215Y44196D01*
X27381Y35306D01*
X33020Y27279D01*
X39979Y20320D01*
X48006Y14681D01*
X56896Y10515D01*
X66395Y7975D01*
X76200Y7112D01*
X86004Y7975D01*
X95504Y10515D01*
X104394Y14681D01*
X112420Y20320D01*
X114046Y21894D01*
X117348Y24130D01*
X121208Y24892D01*
X348081Y24892D01*
X351993Y24130D01*
X355295Y21894D01*
X377494Y-304D01*
X379730Y-3606D01*
X380492Y-7518D01*
X380492Y-43281D01*
X379730Y-47193D01*
X377494Y-50495D01*
X352755Y-75285D01*
X349300Y-77520D01*
X345236Y-78232D01*
X341274Y-77317D01*
X337972Y-74828D01*
X335889Y-71272D01*
X335432Y-67208D01*
X335737Y-63500D01*
X334873Y-53695D01*
X332333Y-44246D01*
X328218Y-35306D01*
X322580Y-27279D01*
X315620Y-20320D01*
X307594Y-14681D01*
X298653Y-10566D01*
X289204Y-8026D01*
X279400Y-7162D01*
X269595Y-8026D01*
X260146Y-10566D01*
X251206Y-14681D01*
X243179Y-20320D01*
X241604Y-21894D01*
X238302Y-24130D01*
X234391Y-24892D01*
X113995Y-24892D01*
X109677Y-23926D01*
X108204Y-23215D01*
X98704Y-20675D01*
X88900Y-19812D01*
X79095Y-20675D01*
X69596Y-23215D01*
X60706Y-27381D01*
X52679Y-33020D01*
X45720Y-39979D01*
X40081Y-48006D01*
X35915Y-56896D01*
X33375Y-66395D01*
X32512Y-76200D01*
X33375Y-86004D01*
X35915Y-95504D01*
X40081Y-104394D01*
X41554Y-106527D01*
X43230Y-110591D01*
X43078Y-114960D01*
X41046Y-118872D01*
X37541Y-121564D01*
X33223Y-122478D01*
X-82956Y-122478D01*
X-93014Y-123393D01*
X-102463Y-125933D01*
X-106781Y-126898D01*
X-208178Y-126898D01*
X-212852Y-127101D01*
X-217220Y-127660D01*
X-221589Y-128625D01*
X-225806Y-129946D01*
X-229920Y-131673D01*
X-233832Y-133705D01*
X-237591Y-136093D01*
X-241096Y-138785D01*
X-244551Y-141935D01*
X-349910Y-247345D01*
X-353212Y-249529D01*
X-357073Y-250291D01*
X-601218Y-250291D01*
X-607517Y-251002D01*
X-613003Y-252933D01*
X-617880Y-255981D01*
X-621995Y-260096D01*
X-625094Y-264972D01*
X-626973Y-270459D01*
X-627684Y-276758D01*
X-627684Y-340156D01*
X-628446Y-344017D01*
X-630682Y-347319D01*
X-633984Y-349504D01*
X-637844Y-350316D01*
X-1032408Y-350316D01*
X-1037082Y-350520D01*
X-1041501Y-351078D01*
X-1045819Y-352044D01*
X-1050036Y-353364D01*
X-1054252Y-355142D01*
X-1057706Y-355904D01*
X-1061212Y-355447D01*
X-1074775Y-351231D01*
X-1089710Y-348488D01*
X-1104900Y-347573D01*
X-1120089Y-348488D01*
X-1135024Y-351231D01*
X-1149553Y-355752D01*
X-1163421Y-362000D01*
X-1176426Y-369874D01*
X-1188364Y-379222D01*
X-1199134Y-389991D01*
X-1208481Y-401929D01*
X-1216355Y-414934D01*
X-1222603Y-428802D01*
X-1227124Y-443331D01*
X-1229868Y-458266D01*
X-1230782Y-473456D01*
X-1229868Y-488645D01*
X-1227124Y-503580D01*
X-1222603Y-518109D01*
X-1216355Y-531977D01*
X-1208481Y-544982D01*
X-1199134Y-556920D01*
X-1188364Y-567690D01*
X-1176426Y-577037D01*
X-1163421Y-584911D01*
X-1149553Y-591159D01*
X-1135024Y-595680D01*
X-1120089Y-598424D01*
X-1104900Y-599338D01*
X-1089710Y-598424D01*
X-1074775Y-595680D01*
X-1060246Y-591159D01*
X-1046378Y-584911D01*
X-1033373Y-577037D01*
X-1021435Y-567690D01*
X-1010666Y-556920D01*
X-1001318Y-544982D01*
X-993444Y-531977D01*
X-987196Y-518109D01*
X-982675Y-503580D01*
X-979932Y-488645D01*
X-979017Y-473456D01*
X-979627Y-462889D01*
X-979068Y-458825D01*
X-976884Y-455320D01*
X-973531Y-452932D01*
X-969518Y-452120D01*
X-637844Y-452120D01*
X-633984Y-452882D01*
X-630682Y-455066D01*
X-628446Y-458368D01*
X-627684Y-462280D01*
X-627684Y-525627D01*
X-626973Y-531977D01*
X-625094Y-537413D01*
X-621995Y-542340D01*
X-617880Y-546404D01*
X-613003Y-549503D01*
X-607517Y-551383D01*
X-601218Y-552094D01*
X-264261Y-552094D01*
X-260400Y-552907D01*
X-257098Y-555091D01*
X-254863Y-558393D01*
X-254101Y-562254D01*
X-254101Y-767283D01*
X-254863Y-771194D01*
X-257098Y-774496D01*
X-349910Y-867308D01*
X-353212Y-869543D01*
X-357124Y-870305D01*
X-601218Y-870305D01*
X-607517Y-871016D01*
X-613003Y-872947D01*
X-617880Y-875995D01*
X-621995Y-880110D01*
X-625094Y-884986D01*
X-626973Y-890473D01*
X-627684Y-896772D01*
X-627684Y-960119D01*
X-628446Y-964031D01*
X-630682Y-967333D01*
X-633984Y-969518D01*
X-637844Y-970280D01*
X-969670Y-970280D01*
X-973429Y-969568D01*
X-976680Y-967536D01*
X-978916Y-964437D01*
X-982675Y-944219D01*
X-987196Y-929690D01*
X-993444Y-915822D01*
X-1001318Y-902817D01*
X-1010666Y-890879D01*
X-1021435Y-880110D01*
X-1033373Y-870762D01*
X-1046378Y-862888D01*
X-1060246Y-856640D01*
X-1074775Y-852119D01*
X-1089710Y-849376D01*
X-1104900Y-848461D01*
X-1120089Y-849376D01*
X-1135024Y-852119D01*
X-1149553Y-856640D01*
X-1163421Y-862888D01*
X-1176426Y-870762D01*
X-1188364Y-880110D01*
X-1199134Y-890879D01*
X-1208481Y-902817D01*
X-1216355Y-915822D01*
X-1222603Y-929690D01*
X-1227124Y-944219D01*
X-1229868Y-959154D01*
X-1230782Y-974344D01*
X-1229868Y-989533D01*
X-1227124Y-1004468D01*
X-1222603Y-1018997D01*
X-1216355Y-1032865D01*
X-1208481Y-1045870D01*
X-1199134Y-1057808D01*
X-1188364Y-1068578D01*
X-1176426Y-1077925D01*
X-1163421Y-1085799D01*
X-1149553Y-1092047D01*
X-1135024Y-1096568D01*
X-1120089Y-1099312D01*
X-1104900Y-1100226D01*
X-1089710Y-1099312D01*
X-1074775Y-1096568D01*
X-1060246Y-1092047D01*
X-1046378Y-1085799D01*
X-1033373Y-1077925D01*
X-1028700Y-1074267D01*
X-1025753Y-1072642D01*
X-1022400Y-1072083D01*
X-637844Y-1072083D01*
X-633984Y-1072896D01*
X-630682Y-1075080D01*
X-628446Y-1078382D01*
X-627684Y-1082243D01*
X-627684Y-1145641D01*
X-626973Y-1151940D01*
X-625094Y-1157427D01*
X-621995Y-1162304D01*
X-617880Y-1166418D01*
X-613003Y-1169517D01*
X-607517Y-1171397D01*
G37*
G36*
X474167Y-1074521D02*
G01*
X503478Y-1074521D01*
X503478Y-1025956D01*
X447700Y-1025956D01*
X447700Y-1048054D01*
X448411Y-1054354D01*
X450291Y-1059789D01*
X453390Y-1064717D01*
X457504Y-1068781D01*
X462381Y-1071880D01*
X467868Y-1073810D01*
G37*
G36*
X296621Y-1074521D02*
G01*
X325932Y-1074521D01*
X332232Y-1073810D01*
X337718Y-1071880D01*
X342595Y-1068781D01*
X346710Y-1064717D01*
X349808Y-1059789D01*
X351688Y-1054354D01*
X352399Y-1048054D01*
X352399Y-1025956D01*
X296621Y-1025956D01*
G37*
G36*
X182067Y-1074521D02*
G01*
X211378Y-1074521D01*
X211378Y-1025956D01*
X155600Y-1025956D01*
X155600Y-1048054D01*
X156311Y-1054354D01*
X158191Y-1059789D01*
X161290Y-1064717D01*
X165404Y-1068781D01*
X170281Y-1071880D01*
X175768Y-1073810D01*
G37*
G36*
X588721Y-1074521D02*
G01*
X618032Y-1074521D01*
X624332Y-1073810D01*
X629818Y-1071880D01*
X634695Y-1068781D01*
X638810Y-1064717D01*
X641908Y-1059789D01*
X643788Y-1054354D01*
X644499Y-1048054D01*
X644499Y-1025956D01*
X588721Y-1025956D01*
G37*
G36*
X-8178Y-1061821D02*
G01*
X21132Y-1061821D01*
X27432Y-1061110D01*
X32918Y-1059180D01*
X37795Y-1056081D01*
X41910Y-1052017D01*
X45008Y-1047089D01*
X46888Y-1041653D01*
X47599Y-1035354D01*
X47599Y-1013256D01*
X-8178Y-1013256D01*
G37*
G36*
X-122732Y-1061821D02*
G01*
X-93421Y-1061821D01*
X-93421Y-1013256D01*
X-149199Y-1013256D01*
X-149199Y-1035354D01*
X-148488Y-1041653D01*
X-146608Y-1047089D01*
X-143510Y-1052017D01*
X-139395Y-1056081D01*
X-134518Y-1059180D01*
X-129032Y-1061110D01*
G37*
G36*
X296621Y-955243D02*
G01*
X352399Y-955243D01*
X352399Y-933145D01*
X351688Y-926846D01*
X349808Y-921410D01*
X346710Y-916482D01*
X342595Y-912418D01*
X337718Y-909319D01*
X332232Y-907389D01*
X325932Y-906678D01*
X296621Y-906678D01*
G37*
G36*
X155600Y-955243D02*
G01*
X211378Y-955243D01*
X211378Y-906678D01*
X182067Y-906678D01*
X175768Y-907389D01*
X170281Y-909319D01*
X165404Y-912418D01*
X161290Y-916482D01*
X158191Y-921410D01*
X156311Y-926846D01*
X155600Y-933145D01*
G37*
G36*
X447700Y-955243D02*
G01*
X503478Y-955243D01*
X503478Y-906678D01*
X474167Y-906678D01*
X467868Y-907389D01*
X462381Y-909319D01*
X457504Y-912418D01*
X453390Y-916482D01*
X450291Y-921410D01*
X448411Y-926846D01*
X447700Y-933145D01*
G37*
G36*
X-149199Y-942543D02*
G01*
X-93421Y-942543D01*
X-93421Y-893978D01*
X-122732Y-893978D01*
X-129032Y-894689D01*
X-134518Y-896619D01*
X-139395Y-899718D01*
X-143510Y-903782D01*
X-146608Y-908710D01*
X-148488Y-914146D01*
X-149199Y-920445D01*
G37*
G36*
X-8178Y-942543D02*
G01*
X47599Y-942543D01*
X47599Y-920445D01*
X46888Y-914146D01*
X45008Y-908710D01*
X41910Y-903782D01*
X37795Y-899718D01*
X32918Y-896619D01*
X27432Y-894689D01*
X21132Y-893978D01*
X-8178Y-893978D01*
G37*
G36*
X-1249222Y-37896D02*
G01*
X-1249222Y-5943D01*
X-1281328Y-5943D01*
X-1276350Y-15392D01*
X-1270203Y-23317D01*
X-1262786Y-30124D01*
X-1254353Y-35661D01*
G37*
G36*
X-1389227Y-37896D02*
G01*
X-1389227Y-5943D01*
X-1421333Y-5943D01*
X-1416354Y-15392D01*
X-1410208Y-23317D01*
X-1402791Y-30124D01*
X-1394358Y-35661D01*
G37*
G36*
X-1201572Y-37896D02*
G01*
X-1196441Y-35661D01*
X-1188008Y-30124D01*
X-1180592Y-23317D01*
X-1174445Y-15392D01*
X-1169466Y-5943D01*
X-1201572Y-5943D01*
G37*
G36*
X-1341577Y-37896D02*
G01*
X-1336446Y-35661D01*
X-1328013Y-30124D01*
X-1320596Y-23317D01*
X-1314450Y-15392D01*
X-1309471Y-5943D01*
X-1341577Y-5943D01*
G37*
G36*
X-1071067Y24028D02*
G01*
X-1064463Y27178D01*
X-1055065Y33578D01*
X-1046784Y41300D01*
X-1039723Y50190D01*
X-1034034Y59994D01*
X-1029868Y70561D01*
X-1027379Y81584D01*
X-1026972Y86563D01*
X-1071067Y86563D01*
G37*
G36*
X-1457045Y24028D02*
G01*
X-1450441Y27178D01*
X-1445361Y30683D01*
X-1444955Y33274D01*
X-1443736Y36626D01*
X-1441500Y39319D01*
X-1438402Y41148D01*
X-1434947Y41757D01*
X-1389227Y41757D01*
X-1388567Y46888D01*
X-1386687Y50038D01*
X-1383792Y52324D01*
X-1380286Y53390D01*
X-1365402Y52019D01*
X-1350518Y53390D01*
X-1347012Y52324D01*
X-1344117Y50038D01*
X-1342237Y46888D01*
X-1341577Y41757D01*
X-1309471Y41757D01*
X-1314450Y51206D01*
X-1320647Y59131D01*
X-1322527Y63195D01*
X-1322527Y67614D01*
X-1320647Y71628D01*
X-1314450Y79603D01*
X-1309674Y88442D01*
X-1306372Y97942D01*
X-1305407Y103784D01*
X-1303985Y107543D01*
X-1301140Y110439D01*
X-1297432Y112064D01*
X-1293368Y112064D01*
X-1289659Y110439D01*
X-1286814Y107543D01*
X-1285392Y103784D01*
X-1284427Y97942D01*
X-1281125Y88442D01*
X-1276350Y79603D01*
X-1270152Y71628D01*
X-1268272Y67614D01*
X-1268272Y63195D01*
X-1270152Y59131D01*
X-1276350Y51206D01*
X-1281328Y41757D01*
X-1249222Y41757D01*
X-1248562Y46888D01*
X-1246682Y50038D01*
X-1243787Y52324D01*
X-1240282Y53390D01*
X-1225397Y52019D01*
X-1210513Y53390D01*
X-1207008Y52324D01*
X-1204112Y50038D01*
X-1202232Y46888D01*
X-1201572Y41757D01*
X-1155852Y41757D01*
X-1152398Y41148D01*
X-1149299Y39319D01*
X-1147064Y36626D01*
X-1145844Y33274D01*
X-1145438Y30683D01*
X-1140358Y27178D01*
X-1133754Y24028D01*
X-1133754Y86563D01*
X-1156309Y86563D01*
X-1160576Y87528D01*
X-1164031Y90170D01*
X-1166063Y94030D01*
X-1166317Y98399D01*
X-1164742Y107848D01*
X-1164742Y117906D01*
X-1166368Y127812D01*
X-1169670Y137363D01*
X-1174445Y146202D01*
X-1180592Y154127D01*
X-1188516Y161391D01*
X-1190955Y164846D01*
X-1191818Y169011D01*
X-1190853Y173177D01*
X-1188313Y176530D01*
X-1184605Y178612D01*
X-1179068Y180289D01*
X-1172362Y183845D01*
X-1166164Y188976D01*
X-1158798Y196291D01*
X-1155496Y198475D01*
X-1151636Y199237D01*
X-1133754Y199237D01*
X-1133754Y217119D01*
X-1132992Y221030D01*
X-1130757Y224332D01*
X-1104595Y250494D01*
X-1101293Y252729D01*
X-1097381Y253492D01*
X-1081227Y253492D01*
X-1077315Y252729D01*
X-1074013Y250494D01*
X-1071829Y247243D01*
X-1071067Y243332D01*
X-1071067Y199237D01*
X-1026972Y199237D01*
X-1027379Y204216D01*
X-1029868Y215290D01*
X-1032662Y222300D01*
X-1033373Y226009D01*
X-1032662Y229666D01*
X-1030681Y232867D01*
X-1027684Y235102D01*
X-1024077Y236118D01*
X-1018895Y236575D01*
X-1009396Y239115D01*
X-1000506Y243281D01*
X-992479Y248920D01*
X-985519Y255879D01*
X-979881Y263906D01*
X-975715Y272796D01*
X-973175Y282295D01*
X-972312Y292100D01*
X-973175Y301904D01*
X-975715Y311404D01*
X-979881Y320294D01*
X-985519Y328320D01*
X-992479Y335280D01*
X-1000506Y340918D01*
X-1009396Y345084D01*
X-1018895Y347624D01*
X-1028700Y348488D01*
X-1038504Y347624D01*
X-1048003Y345084D01*
X-1056894Y340918D01*
X-1064920Y335280D01*
X-1066546Y333705D01*
X-1069848Y331470D01*
X-1073708Y330708D01*
X-1117092Y330708D01*
X-1125118Y329895D01*
X-1132332Y327710D01*
X-1139037Y324154D01*
X-1145235Y319024D01*
X-1151077Y313232D01*
X-1154480Y310997D01*
X-1158494Y310286D01*
X-1162456Y311200D01*
X-1165758Y313588D01*
X-1167841Y317144D01*
X-1169670Y322376D01*
X-1174445Y331216D01*
X-1178712Y336651D01*
X-1180592Y340664D01*
X-1180592Y345135D01*
X-1178712Y349148D01*
X-1174445Y354584D01*
X-1169670Y363423D01*
X-1166368Y372973D01*
X-1164742Y382879D01*
X-1164742Y392938D01*
X-1166368Y402844D01*
X-1169670Y412343D01*
X-1174445Y421182D01*
X-1178712Y426669D01*
X-1180592Y430682D01*
X-1180592Y435101D01*
X-1178712Y439115D01*
X-1175562Y443179D01*
X-1172819Y445617D01*
X-1169416Y446887D01*
X-1165758Y446938D01*
X-1162354Y445668D01*
X-1159611Y443280D01*
X-1158036Y441299D01*
X-1149705Y433578D01*
X-1140358Y427177D01*
X-1133754Y424027D01*
X-1133754Y486562D01*
X-1156970Y486562D01*
X-1161084Y487426D01*
X-1164437Y489864D01*
X-1166571Y493420D01*
X-1169670Y502361D01*
X-1174445Y511200D01*
X-1180642Y519176D01*
X-1182522Y523189D01*
X-1182522Y527608D01*
X-1180642Y531622D01*
X-1174445Y539597D01*
X-1169670Y548436D01*
X-1166368Y557987D01*
X-1164742Y567893D01*
X-1164742Y577951D01*
X-1166317Y587451D01*
X-1166114Y591820D01*
X-1164031Y595680D01*
X-1160576Y598322D01*
X-1156309Y599236D01*
X-1133754Y599236D01*
X-1133754Y661822D01*
X-1140358Y658622D01*
X-1145438Y655167D01*
X-1145844Y652526D01*
X-1147064Y649173D01*
X-1149299Y646480D01*
X-1152398Y644652D01*
X-1155852Y644042D01*
X-1201572Y644042D01*
X-1202232Y638911D01*
X-1204112Y635762D01*
X-1207008Y633476D01*
X-1210513Y632409D01*
X-1225397Y633780D01*
X-1240282Y632409D01*
X-1243787Y633476D01*
X-1246682Y635762D01*
X-1248562Y638911D01*
X-1249222Y644042D01*
X-1281328Y644042D01*
X-1276350Y634593D01*
X-1270152Y626668D01*
X-1268272Y622604D01*
X-1268272Y618185D01*
X-1270152Y614172D01*
X-1276350Y606196D01*
X-1281125Y597357D01*
X-1284427Y587857D01*
X-1285392Y582015D01*
X-1286814Y578256D01*
X-1289659Y575360D01*
X-1293368Y573735D01*
X-1297432Y573735D01*
X-1301140Y575360D01*
X-1303985Y578256D01*
X-1305407Y582015D01*
X-1306372Y587857D01*
X-1309674Y597357D01*
X-1314450Y606196D01*
X-1320647Y614172D01*
X-1322527Y618185D01*
X-1322527Y622604D01*
X-1320647Y626668D01*
X-1314450Y634593D01*
X-1309471Y644042D01*
X-1341577Y644042D01*
X-1342237Y638911D01*
X-1344117Y635762D01*
X-1347012Y633476D01*
X-1350518Y632409D01*
X-1365402Y633780D01*
X-1380286Y632409D01*
X-1383792Y633476D01*
X-1386687Y635762D01*
X-1388567Y638911D01*
X-1389227Y644042D01*
X-1434947Y644042D01*
X-1438402Y644652D01*
X-1441500Y646480D01*
X-1443736Y649173D01*
X-1444955Y652526D01*
X-1445361Y655167D01*
X-1450441Y658622D01*
X-1457045Y661822D01*
X-1457045Y599236D01*
X-1434490Y599236D01*
X-1430223Y598322D01*
X-1426768Y595680D01*
X-1424686Y591820D01*
X-1424482Y587451D01*
X-1426057Y577951D01*
X-1426057Y567893D01*
X-1424432Y557987D01*
X-1421130Y548436D01*
X-1416354Y539597D01*
X-1410208Y531672D01*
X-1402791Y524865D01*
X-1394358Y519379D01*
X-1385163Y515315D01*
X-1375410Y512876D01*
X-1365402Y512013D01*
X-1355394Y512876D01*
X-1345641Y515315D01*
X-1336446Y519379D01*
X-1328013Y524865D01*
X-1320596Y531672D01*
X-1314450Y539597D01*
X-1309674Y548436D01*
X-1306372Y557987D01*
X-1305407Y563778D01*
X-1303985Y567588D01*
X-1301140Y570484D01*
X-1297432Y572058D01*
X-1293368Y572058D01*
X-1289659Y570484D01*
X-1286814Y567588D01*
X-1285392Y563778D01*
X-1284427Y557987D01*
X-1281125Y548436D01*
X-1276350Y539597D01*
X-1270152Y531622D01*
X-1268272Y527608D01*
X-1268272Y523189D01*
X-1270152Y519176D01*
X-1276350Y511200D01*
X-1281125Y502361D01*
X-1284427Y492810D01*
X-1286052Y482904D01*
X-1286052Y472846D01*
X-1284427Y462940D01*
X-1281125Y453440D01*
X-1276350Y444601D01*
X-1272082Y439115D01*
X-1270203Y435101D01*
X-1270203Y430682D01*
X-1272082Y426669D01*
X-1276350Y421182D01*
X-1281125Y412343D01*
X-1284427Y402844D01*
X-1285392Y397002D01*
X-1286814Y393242D01*
X-1289659Y390347D01*
X-1293368Y388721D01*
X-1297432Y388721D01*
X-1301140Y390347D01*
X-1303985Y393242D01*
X-1305407Y397002D01*
X-1306372Y402844D01*
X-1309674Y412343D01*
X-1314450Y421182D01*
X-1320596Y429107D01*
X-1328013Y435914D01*
X-1336446Y441451D01*
X-1345641Y445465D01*
X-1355394Y447954D01*
X-1365402Y448767D01*
X-1375410Y447954D01*
X-1385163Y445465D01*
X-1394358Y441451D01*
X-1402791Y435914D01*
X-1410208Y429107D01*
X-1416354Y421182D01*
X-1421130Y412343D01*
X-1424432Y402844D01*
X-1426057Y392938D01*
X-1426057Y382879D01*
X-1424432Y372973D01*
X-1421130Y363423D01*
X-1416354Y354584D01*
X-1412087Y349148D01*
X-1410208Y345135D01*
X-1410208Y340664D01*
X-1412087Y336651D01*
X-1416354Y331216D01*
X-1421130Y322376D01*
X-1424432Y312826D01*
X-1426057Y302920D01*
X-1426057Y292862D01*
X-1424432Y282956D01*
X-1421130Y273456D01*
X-1416354Y264617D01*
X-1412087Y259130D01*
X-1410208Y255117D01*
X-1410208Y250698D01*
X-1412087Y246634D01*
X-1415237Y242620D01*
X-1417980Y240182D01*
X-1421384Y238912D01*
X-1425041Y238861D01*
X-1428445Y240131D01*
X-1431188Y242519D01*
X-1432763Y244500D01*
X-1441094Y252221D01*
X-1450441Y258622D01*
X-1457045Y261823D01*
X-1457045Y199237D01*
X-1433830Y199237D01*
X-1429766Y198424D01*
X-1426362Y195986D01*
X-1424228Y192379D01*
X-1421130Y183438D01*
X-1416354Y174599D01*
X-1410157Y166624D01*
X-1408277Y162610D01*
X-1408277Y158191D01*
X-1410157Y154127D01*
X-1416354Y146202D01*
X-1421130Y137363D01*
X-1424432Y127812D01*
X-1426057Y117906D01*
X-1426057Y107848D01*
X-1424482Y98399D01*
X-1424736Y94030D01*
X-1426768Y90170D01*
X-1430223Y87528D01*
X-1434490Y86563D01*
X-1457045Y86563D01*
G37*
G36*
X1590395Y76555D02*
G01*
X1601927Y77927D01*
X1613154Y80975D01*
X1623771Y85750D01*
X1633474Y92049D01*
X1642160Y99771D01*
X1649577Y108762D01*
X1655521Y118719D01*
X1659839Y129489D01*
X1662480Y140817D01*
X1663395Y152400D01*
X1662480Y163982D01*
X1659839Y175310D01*
X1655521Y186080D01*
X1649577Y196037D01*
X1641805Y205333D01*
X1639316Y208788D01*
X1638401Y212902D01*
X1638401Y828497D01*
X1639316Y832612D01*
X1642160Y836371D01*
X1649577Y845362D01*
X1655521Y855319D01*
X1659839Y866089D01*
X1662480Y877417D01*
X1663395Y889000D01*
X1662480Y900582D01*
X1659839Y911910D01*
X1655521Y922680D01*
X1649577Y932637D01*
X1642160Y941628D01*
X1633474Y949350D01*
X1623771Y955649D01*
X1613154Y960424D01*
X1601927Y963472D01*
X1590395Y964844D01*
X1578813Y964387D01*
X1567383Y962152D01*
X1556461Y958240D01*
X1546250Y952703D01*
X1537004Y945642D01*
X1528978Y937260D01*
X1522272Y927760D01*
X1517142Y917346D01*
X1513636Y906271D01*
X1511858Y894791D01*
X1511858Y883208D01*
X1513636Y871728D01*
X1517142Y860653D01*
X1522272Y850239D01*
X1528978Y840740D01*
X1533753Y835761D01*
X1535836Y832510D01*
X1536598Y828700D01*
X1536598Y212699D01*
X1535836Y208889D01*
X1533753Y205638D01*
X1528978Y200660D01*
X1522272Y191160D01*
X1517142Y180746D01*
X1513636Y169672D01*
X1511858Y158191D01*
X1511858Y146608D01*
X1513636Y135128D01*
X1517142Y124053D01*
X1522272Y113639D01*
X1528978Y104139D01*
X1537004Y95758D01*
X1546250Y88696D01*
X1556461Y83159D01*
X1567383Y79248D01*
X1578813Y77012D01*
G37*
G36*
X167995Y254355D02*
G01*
X179527Y255727D01*
X190754Y258775D01*
X201371Y263550D01*
X211074Y269849D01*
X219760Y277571D01*
X227177Y286562D01*
X233121Y296519D01*
X237439Y307289D01*
X238810Y313131D01*
X240436Y316687D01*
X243281Y319379D01*
X943559Y762203D01*
X1251712Y892911D01*
X1451813Y982929D01*
X1455572Y983843D01*
X1459382Y983234D01*
X1465783Y980948D01*
X1477213Y978712D01*
X1488795Y978255D01*
X1500327Y979627D01*
X1511554Y982675D01*
X1522171Y987450D01*
X1531874Y993749D01*
X1540560Y1001471D01*
X1547977Y1010462D01*
X1553921Y1020419D01*
X1558239Y1031189D01*
X1560880Y1042517D01*
X1561795Y1054100D01*
X1560880Y1065682D01*
X1558239Y1077010D01*
X1553921Y1087780D01*
X1547977Y1097737D01*
X1540560Y1106728D01*
X1531874Y1114450D01*
X1522171Y1120749D01*
X1511554Y1125524D01*
X1500327Y1128572D01*
X1488795Y1129944D01*
X1477213Y1129487D01*
X1465783Y1127252D01*
X1454861Y1123340D01*
X1444650Y1117803D01*
X1435404Y1110742D01*
X1427378Y1102360D01*
X1420672Y1092860D01*
X1415338Y1081887D01*
X1413256Y1078179D01*
X1409801Y1075690D01*
X1211427Y986434D01*
X901090Y854913D01*
X893013Y850696D01*
X188976Y405536D01*
X185064Y404063D01*
X167995Y406044D01*
X156413Y405587D01*
X144983Y403352D01*
X134061Y399440D01*
X123850Y393903D01*
X114604Y386842D01*
X106578Y378460D01*
X99872Y368960D01*
X94742Y358546D01*
X91236Y347472D01*
X89458Y335991D01*
X89458Y324408D01*
X91236Y312928D01*
X94742Y301853D01*
X99872Y291439D01*
X106578Y281940D01*
X114604Y273558D01*
X123850Y266496D01*
X134061Y260959D01*
X144983Y257048D01*
X156413Y254812D01*
G37*
G36*
X-1071067Y424027D02*
G01*
X-1064463Y427177D01*
X-1055065Y433578D01*
X-1046784Y441299D01*
X-1039723Y450189D01*
X-1034034Y459993D01*
X-1029868Y470560D01*
X-1027379Y481584D01*
X-1026972Y486562D01*
X-1071067Y486562D01*
G37*
G36*
X-1457045Y424027D02*
G01*
X-1450441Y427177D01*
X-1441094Y433578D01*
X-1432763Y441299D01*
X-1425702Y450189D01*
X-1420012Y459993D01*
X-1415897Y470560D01*
X-1413357Y481584D01*
X-1413002Y486562D01*
X-1457045Y486562D01*
G37*
G36*
X-200304Y521055D02*
G01*
X-188772Y522427D01*
X-177546Y525475D01*
X-166928Y530250D01*
X-157226Y536549D01*
X-148539Y544271D01*
X-141122Y553262D01*
X-135178Y563219D01*
X-130860Y573989D01*
X-128219Y585317D01*
X-127304Y596900D01*
X-128219Y608482D01*
X-130860Y619810D01*
X-135178Y630580D01*
X-141122Y640537D01*
X-148539Y649528D01*
X-157226Y657250D01*
X-166928Y663549D01*
X-177546Y668324D01*
X-188772Y671372D01*
X-200304Y672744D01*
X-211886Y672287D01*
X-223316Y670052D01*
X-234238Y666140D01*
X-244449Y660603D01*
X-253695Y653542D01*
X-256184Y650900D01*
X-259537Y648614D01*
X-263550Y647801D01*
X-393801Y647801D01*
X-397713Y648563D01*
X-400964Y650798D01*
X-466801Y716635D01*
X-469036Y719886D01*
X-469798Y723798D01*
X-469798Y1028496D01*
X-470001Y1033119D01*
X-470560Y1037539D01*
X-471525Y1041857D01*
X-472846Y1046124D01*
X-474573Y1050188D01*
X-476605Y1054150D01*
X-478891Y1057757D01*
X-483057Y1062786D01*
X-484885Y1066139D01*
X-485343Y1069898D01*
X-484378Y1073556D01*
X-482142Y1076655D01*
X-478942Y1078687D01*
X-475183Y1079398D01*
X-419608Y1079398D01*
X-415290Y1078433D01*
X-412953Y1077366D01*
X-403504Y1074826D01*
X-393700Y1073962D01*
X-383895Y1074826D01*
X-374446Y1077366D01*
X-365506Y1081481D01*
X-357479Y1087120D01*
X-350520Y1094079D01*
X-344881Y1102106D01*
X-340766Y1111046D01*
X-338226Y1120495D01*
X-337362Y1130300D01*
X-338226Y1140104D01*
X-340766Y1149553D01*
X-344881Y1158494D01*
X-350520Y1166520D01*
X-357479Y1173480D01*
X-365506Y1179118D01*
X-374446Y1183233D01*
X-383895Y1185773D01*
X-393700Y1186637D01*
X-403504Y1185773D01*
X-412953Y1183233D01*
X-415290Y1182166D01*
X-419608Y1181201D01*
X-786892Y1181201D01*
X-791210Y1182166D01*
X-793546Y1183233D01*
X-802995Y1185773D01*
X-812800Y1186637D01*
X-822604Y1185773D01*
X-832053Y1183233D01*
X-840994Y1179118D01*
X-849020Y1173480D01*
X-855980Y1166520D01*
X-861618Y1158494D01*
X-865733Y1149553D01*
X-868273Y1140104D01*
X-869137Y1130300D01*
X-868273Y1120495D01*
X-865733Y1111046D01*
X-861618Y1102106D01*
X-855980Y1094079D01*
X-849020Y1087120D01*
X-840994Y1081481D01*
X-832053Y1077366D01*
X-822604Y1074826D01*
X-812800Y1073962D01*
X-802995Y1074826D01*
X-793546Y1077366D01*
X-791210Y1078433D01*
X-786892Y1079398D01*
X-647598Y1079398D01*
X-643686Y1078636D01*
X-640435Y1076401D01*
X-574598Y1010564D01*
X-572363Y1007313D01*
X-571601Y1003401D01*
X-571601Y698703D01*
X-571398Y694080D01*
X-570839Y689660D01*
X-569874Y685342D01*
X-568553Y681075D01*
X-566826Y677011D01*
X-564794Y673049D01*
X-562406Y669290D01*
X-559714Y665784D01*
X-556564Y662330D01*
X-455269Y561035D01*
X-451815Y557885D01*
X-448309Y555193D01*
X-444550Y552805D01*
X-440588Y550773D01*
X-436524Y549046D01*
X-432257Y547725D01*
X-427939Y546760D01*
X-423519Y546201D01*
X-418896Y545998D01*
X-263550Y545998D01*
X-259537Y545185D01*
X-256184Y542899D01*
X-253695Y540258D01*
X-244449Y533196D01*
X-234238Y527659D01*
X-223316Y523748D01*
X-211886Y521512D01*
G37*
G36*
X-1071067Y599236D02*
G01*
X-1026972Y599236D01*
X-1027379Y604215D01*
X-1029868Y615289D01*
X-1034034Y625856D01*
X-1039723Y635660D01*
X-1046784Y644499D01*
X-1055065Y652221D01*
X-1064463Y658622D01*
X-1071067Y661822D01*
G37*
G36*
X1066800Y667512D02*
G01*
X1076604Y668375D01*
X1086104Y670915D01*
X1094994Y675081D01*
X1103020Y680720D01*
X1109980Y687679D01*
X1115618Y695706D01*
X1119784Y704596D01*
X1122324Y714095D01*
X1123188Y723900D01*
X1122324Y733704D01*
X1119784Y743204D01*
X1115618Y752094D01*
X1109980Y760120D01*
X1103020Y767080D01*
X1094994Y772718D01*
X1086104Y776884D01*
X1076604Y779424D01*
X1066800Y780288D01*
X1056995Y779424D01*
X1047496Y776884D01*
X1038606Y772718D01*
X1030579Y767080D01*
X1023619Y760120D01*
X1017981Y752094D01*
X1013815Y743204D01*
X1011275Y733704D01*
X1010412Y723900D01*
X1011275Y714095D01*
X1013815Y704596D01*
X1017981Y695706D01*
X1023619Y687679D01*
X1030579Y680720D01*
X1038606Y675081D01*
X1047496Y670915D01*
X1056995Y668375D01*
G37*
G36*
X-1281328Y691743D02*
G01*
X-1249222Y691743D01*
X-1249222Y723696D01*
X-1254353Y721461D01*
X-1262786Y715924D01*
X-1270203Y709117D01*
X-1276350Y701192D01*
G37*
G36*
X-1341577Y691743D02*
G01*
X-1309471Y691743D01*
X-1314450Y701192D01*
X-1320596Y709117D01*
X-1328013Y715924D01*
X-1336446Y721461D01*
X-1341577Y723696D01*
G37*
G36*
X-1201572Y691743D02*
G01*
X-1169466Y691743D01*
X-1174445Y701192D01*
X-1180592Y709117D01*
X-1188008Y715924D01*
X-1196441Y721461D01*
X-1201572Y723696D01*
G37*
G36*
X-1421333Y691743D02*
G01*
X-1389227Y691743D01*
X-1389227Y723696D01*
X-1394358Y721461D01*
X-1402791Y715924D01*
X-1410208Y709117D01*
X-1416354Y701192D01*
G37*
G36*
X497230Y1209141D02*
G01*
X499414Y1210106D01*
X512419Y1217980D01*
X524357Y1227378D01*
X535127Y1238097D01*
X544474Y1250086D01*
X552348Y1263091D01*
X558596Y1276959D01*
X562762Y1290269D01*
X497230Y1290269D01*
G37*
G36*
X1317244Y1209141D02*
G01*
X1319428Y1210106D01*
X1332433Y1217980D01*
X1344371Y1227378D01*
X1355140Y1238097D01*
X1364488Y1250086D01*
X1372362Y1263091D01*
X1378610Y1276959D01*
X1382776Y1290269D01*
X1317244Y1290269D01*
G37*
G36*
X1204569Y1209141D02*
G01*
X1204569Y1290269D01*
X1139037Y1290269D01*
X1143203Y1276959D01*
X1149451Y1263091D01*
X1157325Y1250086D01*
X1166672Y1238097D01*
X1177442Y1227378D01*
X1189380Y1217980D01*
X1202385Y1210106D01*
G37*
G36*
X384556Y1209141D02*
G01*
X384556Y1290269D01*
X319024Y1290269D01*
X323189Y1276959D01*
X329438Y1263091D01*
X337312Y1250086D01*
X346659Y1238097D01*
X357428Y1227378D01*
X369366Y1217980D01*
X382371Y1210106D01*
G37*
G36*
X636270Y1280668D02*
G01*
X665530Y1280668D01*
X678281Y1281582D01*
X690422Y1284071D01*
X702106Y1288237D01*
X713130Y1293926D01*
X723239Y1301089D01*
X732332Y1309573D01*
X740156Y1319174D01*
X742543Y1323136D01*
X745388Y1326184D01*
X749147Y1327810D01*
X753313Y1327810D01*
X757072Y1326184D01*
X759917Y1323136D01*
X762304Y1319174D01*
X770128Y1309573D01*
X779221Y1301089D01*
X789330Y1293926D01*
X800354Y1288237D01*
X812038Y1284071D01*
X824179Y1281582D01*
X836930Y1280668D01*
X866190Y1280668D01*
X878941Y1281582D01*
X891082Y1284071D01*
X902766Y1288237D01*
X913790Y1293926D01*
X923899Y1301089D01*
X932992Y1309573D01*
X940816Y1319174D01*
X942543Y1322070D01*
X945387Y1325067D01*
X949147Y1326743D01*
X953312Y1326743D01*
X957071Y1325067D01*
X959916Y1322070D01*
X961644Y1319174D01*
X969467Y1309573D01*
X978560Y1301089D01*
X988669Y1293926D01*
X999693Y1288237D01*
X1011377Y1284071D01*
X1023518Y1281582D01*
X1036269Y1280668D01*
X1065530Y1280668D01*
X1078280Y1281582D01*
X1090422Y1284071D01*
X1102106Y1288237D01*
X1113129Y1293926D01*
X1122375Y1300480D01*
X1126083Y1302105D01*
X1127556Y1302105D01*
X1128115Y1304544D01*
X1130452Y1307846D01*
X1132332Y1309573D01*
X1140155Y1319174D01*
X1146606Y1329791D01*
X1151534Y1341170D01*
X1154887Y1353108D01*
X1156563Y1365402D01*
X1156563Y1377797D01*
X1154887Y1390091D01*
X1151534Y1402029D01*
X1146606Y1413408D01*
X1140155Y1424025D01*
X1132332Y1433626D01*
X1130452Y1435354D01*
X1128115Y1438656D01*
X1127556Y1441094D01*
X1126083Y1441094D01*
X1122375Y1442720D01*
X1113129Y1449273D01*
X1102106Y1454962D01*
X1090422Y1459128D01*
X1078280Y1461617D01*
X1065530Y1462481D01*
X1036269Y1462481D01*
X1023518Y1461617D01*
X1011377Y1459128D01*
X999693Y1454962D01*
X988669Y1449273D01*
X978560Y1442110D01*
X969467Y1433626D01*
X961644Y1424025D01*
X959916Y1421130D01*
X957071Y1418132D01*
X953312Y1416456D01*
X949147Y1416456D01*
X945387Y1418132D01*
X942543Y1421130D01*
X940816Y1424025D01*
X932992Y1433626D01*
X923899Y1442110D01*
X913790Y1449273D01*
X902766Y1454962D01*
X891082Y1459128D01*
X878941Y1461617D01*
X866190Y1462481D01*
X836930Y1462481D01*
X824179Y1461617D01*
X812038Y1459128D01*
X800354Y1454962D01*
X789330Y1449273D01*
X779221Y1442110D01*
X770128Y1433626D01*
X762304Y1424025D01*
X759917Y1420063D01*
X757072Y1417015D01*
X753313Y1415389D01*
X749147Y1415389D01*
X745388Y1417015D01*
X742543Y1420063D01*
X740156Y1424025D01*
X732332Y1433626D01*
X723239Y1442110D01*
X713130Y1449273D01*
X702106Y1454962D01*
X690422Y1459128D01*
X678281Y1461617D01*
X665530Y1462481D01*
X636270Y1462481D01*
X623519Y1461617D01*
X611378Y1459128D01*
X599694Y1454962D01*
X588670Y1449273D01*
X579424Y1442720D01*
X575716Y1441094D01*
X574243Y1441094D01*
X573684Y1438656D01*
X571347Y1435354D01*
X569468Y1433626D01*
X561644Y1424025D01*
X555193Y1413408D01*
X550265Y1402029D01*
X546912Y1390091D01*
X545236Y1377797D01*
X545236Y1365402D01*
X546912Y1353108D01*
X550265Y1341170D01*
X555193Y1329791D01*
X561644Y1319174D01*
X569468Y1309573D01*
X571347Y1307846D01*
X573684Y1304544D01*
X574243Y1302105D01*
X575716Y1302105D01*
X579424Y1300480D01*
X588670Y1293926D01*
X599694Y1288237D01*
X611378Y1284071D01*
X623519Y1281582D01*
G37*
G36*
X1139037Y1452930D02*
G01*
X1204569Y1452930D01*
X1204569Y1534058D01*
X1202385Y1533093D01*
X1189380Y1525219D01*
X1177442Y1515821D01*
X1166672Y1505102D01*
X1157325Y1493113D01*
X1149451Y1480108D01*
X1143203Y1466240D01*
G37*
G36*
X319024Y1452930D02*
G01*
X384556Y1452930D01*
X384556Y1534058D01*
X382371Y1533093D01*
X369366Y1525219D01*
X357428Y1515821D01*
X346659Y1505102D01*
X337312Y1493113D01*
X329438Y1480108D01*
X323189Y1466240D01*
G37*
G36*
X1317244Y1452930D02*
G01*
X1382776Y1452930D01*
X1378610Y1466240D01*
X1372362Y1480108D01*
X1364488Y1493113D01*
X1355140Y1505102D01*
X1344371Y1515821D01*
X1332433Y1525219D01*
X1319428Y1533093D01*
X1317244Y1534058D01*
G37*
G36*
X497230Y1452930D02*
G01*
X562762Y1452930D01*
X558596Y1466240D01*
X552348Y1480108D01*
X544474Y1493113D01*
X535127Y1505102D01*
X524357Y1515821D01*
X512419Y1525219D01*
X499414Y1533093D01*
X497230Y1534058D01*
G37*

%LPD*%
G36*
X57759Y-736498D02*
G01*
X53898Y-735736D01*
X50596Y-733501D01*
X48361Y-730199D01*
X47599Y-726338D01*
X47599Y-717245D01*
X46888Y-710946D01*
X45008Y-705510D01*
X41910Y-700582D01*
X37795Y-696518D01*
X32918Y-693420D01*
X27432Y-691489D01*
X21132Y-690778D01*
X10261Y-690778D01*
X6400Y-690016D01*
X3098Y-687832D01*
X863Y-684530D01*
X101Y-680618D01*
X101Y-624332D01*
X863Y-620471D01*
X3149Y-617067D01*
X6451Y-614883D01*
X10363Y-614121D01*
X61874Y-614121D01*
X71882Y-613206D01*
X81178Y-610717D01*
X89916Y-606653D01*
X97840Y-601116D01*
X104648Y-594309D01*
X110185Y-586435D01*
X114249Y-577697D01*
X116738Y-568401D01*
X117551Y-558800D01*
X116738Y-549198D01*
X114249Y-539902D01*
X110185Y-531164D01*
X104648Y-523290D01*
X97840Y-516483D01*
X89916Y-510946D01*
X81178Y-506882D01*
X74676Y-505104D01*
X70764Y-503072D01*
X68072Y-499618D01*
X67157Y-495300D01*
X68072Y-490982D01*
X70764Y-487527D01*
X74676Y-485495D01*
X81178Y-483717D01*
X89916Y-479653D01*
X97840Y-474116D01*
X104648Y-467309D01*
X110185Y-459435D01*
X113233Y-452831D01*
X46939Y-452831D01*
X46939Y-493318D01*
X46126Y-497230D01*
X43942Y-500532D01*
X40640Y-502716D01*
X36779Y-503478D01*
X-57861Y-503478D01*
X-61772Y-502716D01*
X-65074Y-500532D01*
X-67259Y-497230D01*
X-68021Y-493318D01*
X-68021Y-452831D01*
X-135128Y-452831D01*
X-132943Y-455879D01*
X-131267Y-459435D01*
X-125730Y-467309D01*
X-118922Y-474116D01*
X-111048Y-479653D01*
X-102311Y-483717D01*
X-95758Y-485495D01*
X-91897Y-487527D01*
X-89204Y-490982D01*
X-88239Y-495300D01*
X-89204Y-499618D01*
X-91897Y-503072D01*
X-95758Y-505104D01*
X-102311Y-506882D01*
X-111048Y-510946D01*
X-118922Y-516483D01*
X-125730Y-523290D01*
X-131267Y-531164D01*
X-132943Y-534720D01*
X-135229Y-537870D01*
X-138531Y-539953D01*
X-142392Y-540562D01*
X-146202Y-539750D01*
X-149402Y-537514D01*
X-151536Y-534263D01*
X-152298Y-530402D01*
X-152298Y-460197D01*
X-151536Y-456336D01*
X-149402Y-453085D01*
X-147015Y-451408D01*
X-149301Y-449884D01*
X-151536Y-446582D01*
X-152298Y-442671D01*
X-152298Y-431698D01*
X-151536Y-427786D01*
X-149301Y-424535D01*
X-138531Y-413715D01*
X-135229Y-411530D01*
X-131368Y-410768D01*
X-68021Y-410768D01*
X-68021Y-370281D01*
X-67259Y-366369D01*
X-65074Y-363067D01*
X-61772Y-360883D01*
X-57861Y-360121D01*
X36779Y-360121D01*
X40640Y-360883D01*
X43942Y-363067D01*
X46126Y-366369D01*
X46939Y-370281D01*
X46939Y-410768D01*
X113233Y-410768D01*
X110185Y-404164D01*
X104648Y-396290D01*
X97840Y-389483D01*
X89916Y-383946D01*
X81178Y-379882D01*
X74676Y-378104D01*
X70764Y-376072D01*
X68072Y-372618D01*
X67157Y-368300D01*
X68072Y-363982D01*
X70764Y-360527D01*
X74676Y-358495D01*
X81178Y-356717D01*
X89916Y-352653D01*
X97840Y-347116D01*
X104648Y-340309D01*
X110185Y-332435D01*
X114249Y-323697D01*
X116738Y-314401D01*
X117551Y-304800D01*
X116738Y-295198D01*
X114249Y-285902D01*
X110185Y-277164D01*
X104648Y-269290D01*
X97840Y-262483D01*
X89916Y-256946D01*
X81178Y-252882D01*
X74676Y-251104D01*
X70764Y-249072D01*
X68072Y-245617D01*
X67157Y-241300D01*
X68072Y-236982D01*
X70764Y-233527D01*
X74676Y-231495D01*
X81178Y-229717D01*
X89916Y-225653D01*
X97840Y-220116D01*
X104648Y-213309D01*
X110185Y-205435D01*
X114249Y-196697D01*
X116738Y-187401D01*
X117551Y-177800D01*
X116738Y-168198D01*
X114249Y-158902D01*
X110185Y-150164D01*
X105562Y-143560D01*
X103835Y-139496D01*
X104038Y-135077D01*
X106070Y-131216D01*
X109575Y-128524D01*
X117094Y-125018D01*
X125120Y-119380D01*
X132080Y-112420D01*
X136296Y-106426D01*
X138531Y-104139D01*
X141427Y-102616D01*
X144576Y-102108D01*
X161645Y-102108D01*
X165557Y-102870D01*
X168859Y-105105D01*
X171043Y-108356D01*
X171805Y-112268D01*
X171043Y-116179D01*
X168859Y-119430D01*
X150876Y-137464D01*
X145745Y-143662D01*
X142189Y-150368D01*
X140004Y-157581D01*
X139192Y-165608D01*
X139192Y-355092D01*
X140004Y-363118D01*
X142189Y-370332D01*
X145745Y-377037D01*
X150876Y-383235D01*
X226364Y-458724D01*
X232562Y-463854D01*
X239267Y-467410D01*
X246481Y-469595D01*
X254508Y-470408D01*
X303580Y-470408D01*
X307238Y-471068D01*
X310388Y-472998D01*
X312623Y-475945D01*
X313690Y-479501D01*
X313385Y-483209D01*
X312775Y-485495D01*
X311912Y-495300D01*
X312775Y-505104D01*
X315315Y-514604D01*
X319481Y-523493D01*
X325120Y-531520D01*
X332079Y-538480D01*
X340106Y-544118D01*
X348996Y-548284D01*
X358495Y-550824D01*
X366572Y-551535D01*
X369976Y-552450D01*
X372872Y-554431D01*
X404164Y-585724D01*
X410362Y-590854D01*
X417068Y-594410D01*
X424281Y-596595D01*
X428193Y-597001D01*
X431546Y-597916D01*
X435559Y-601116D01*
X443484Y-606653D01*
X452221Y-610717D01*
X461518Y-613206D01*
X471525Y-614121D01*
X540461Y-614121D01*
X544322Y-614883D01*
X547624Y-617067D01*
X616712Y-686155D01*
X618896Y-689457D01*
X619658Y-693318D01*
X618896Y-697230D01*
X616712Y-700532D01*
X613410Y-702716D01*
X609498Y-703478D01*
X474167Y-703478D01*
X467868Y-704189D01*
X462381Y-706120D01*
X457504Y-709218D01*
X453390Y-713282D01*
X450291Y-718210D01*
X448411Y-723646D01*
X447954Y-727456D01*
X446887Y-731012D01*
X444652Y-733907D01*
X441502Y-735838D01*
X437896Y-736498D01*
X362204Y-736498D01*
X358597Y-735838D01*
X355447Y-733907D01*
X353212Y-731012D01*
X352145Y-727456D01*
X351688Y-723646D01*
X349808Y-718210D01*
X346710Y-713282D01*
X342595Y-709218D01*
X337718Y-706120D01*
X332232Y-704189D01*
X325932Y-703478D01*
X182067Y-703478D01*
X175768Y-704189D01*
X170281Y-706120D01*
X165404Y-709218D01*
X161290Y-713282D01*
X158191Y-718210D01*
X156311Y-723646D01*
X155854Y-727456D01*
X154787Y-731012D01*
X152552Y-733907D01*
X149402Y-735838D01*
X145796Y-736498D01*
G37*

%LPD*%
D10*
X673100Y1041400D02*
G01*
X723900Y1092200D01*
X1143000Y1092200D01*
X1181100Y1054100D01*
X1181100Y1028700D01*
X440893Y1371600D02*
G01*
X673100Y1139393D01*
X673100Y1059512D01*
X673100Y1059512D02*
G01*
X673100Y1041400D01*
X177800Y546100D01*
X177800Y482600D01*
D11*
X165100Y330200D02*
G01*
X920584Y807885D01*
X1231900Y939800D01*
X1485900Y1054100D01*
D10*
X1816100Y876300D02*
G01*
X1816100Y-850900D01*
X1866900Y-901700D01*
X2451100Y-901700D01*
D11*
X838200Y-965200D02*
G01*
X889000Y-1016000D01*
X2552700Y-1016000D01*
X254000Y-787400D02*
G01*
X546100Y-787400D01*
X546100Y-787400D02*
G01*
X723900Y-965200D01*
X838200Y-965200D01*
X927100Y-876300D01*
X927100Y-393700D01*
X838200Y-304800D01*
X543940Y-304800D01*
D10*
X368300Y-495300D02*
G01*
X431800Y-558800D01*
X543940Y-558800D01*
X-1488439Y542797D02*
G01*
X-1365504Y668020D01*
X-1225295Y668020D02*
G01*
X-1102360Y542797D01*
X-1365402Y667905D02*
G01*
X-1225397Y667905D01*
D11*
X-431800Y-1021194D02*
G01*
X-203200Y-792594D01*
X-203200Y-406400D01*
X-101600Y-304800D01*
X-10540Y-304800D01*
D10*
X-50800Y-977900D02*
G01*
X-38100Y-990600D01*
X254000Y-990600D01*
D11*
X-10540Y-558800D02*
G01*
X-50800Y-599059D01*
X-50800Y-774700D01*
D10*
X-10540Y-431800D02*
G01*
X152400Y-431800D01*
X368300Y-647700D01*
X381000Y-927100D02*
G01*
X444500Y-990600D01*
X546100Y-990600D01*
X254000Y-990600D02*
G01*
X317500Y-927100D01*
X381000Y-927100D01*
X254000Y-990600D02*
G01*
X482600Y-1219200D01*
X546100Y-1219200D01*
X546100Y-990600D02*
G01*
X711200Y-1155700D01*
X1270000Y-1155700D01*
X2451100Y-1155700D01*
D11*
X1587500Y889000D02*
G01*
X1587500Y152400D01*
X-1104900Y-473455D02*
G01*
X-1032649Y-401205D01*
X-431800Y-401205D01*
D10*
X584200Y241300D02*
G01*
X1257300Y-431800D01*
X1257300Y-571500D01*
X543940Y-431800D02*
G01*
X254000Y-431800D01*
X190500Y-368300D01*
X177800Y-355600D01*
X177800Y-165100D01*
X203200Y-139700D01*
X215900Y-139700D01*
X342900Y-139700D01*
X419100Y-63500D01*
X419100Y12700D01*
X368300Y63500D01*
X76200Y63500D01*
D11*
X543940Y-304800D02*
G01*
X368300Y-304800D01*
D10*
X88900Y-76200D02*
G01*
X101600Y-63500D01*
X279400Y-63500D01*
X482600Y203200D02*
G01*
X1168400Y-482600D01*
X1168400Y-698500D01*
D11*
X-203200Y596900D02*
G01*
X-419100Y596900D01*
X-520700Y698500D01*
X-520700Y1028700D01*
X-622300Y1130300D01*
X-641906Y1130300D01*
X543940Y-177800D02*
G01*
X543940Y-304800D01*
D10*
X543940Y-558800D02*
G01*
X785240Y-800100D01*
X787400Y-800100D01*
X543940Y-431800D02*
G01*
X787400Y-431800D01*
D11*
X-50800Y-774700D02*
G01*
X-38100Y-787400D01*
X254000Y-787400D01*
X-431800Y-401205D02*
G01*
X-208394Y-177800D01*
X-10540Y-177800D01*
X-1104900Y-974344D02*
G01*
X-1058049Y-1021194D01*
X-431800Y-1021194D01*
D10*
X-1365402Y207886D02*
G01*
X-1357388Y215900D01*
X-1219200Y215900D01*
X-1193800Y215900D01*
X-1117600Y292100D01*
X-1028700Y292100D01*
D11*
X-812800Y1130300D02*
G01*
X-393700Y1130300D01*
D12*
G01*
X-50800Y-977900D03*
G01*
X-50800Y-774700D03*
G01*
X546100Y-990600D03*
G01*
X546100Y-787400D03*
G01*
X254000Y-990600D03*
G01*
X254000Y-787400D03*
D13*
G01*
X-431787Y-401206D03*
G01*
X-431787Y-1021205D03*
D14*
G01*
X543940Y-177800D03*
G01*
X543940Y-304800D03*
G01*
X543940Y-431800D03*
G01*
X543940Y-558800D03*
G01*
X-10540Y-177800D03*
G01*
X-10540Y-304800D03*
G01*
X-10540Y-431800D03*
G01*
X-10540Y-558800D03*
D15*
G01*
X-1104900Y-974344D03*
G01*
X-1104900Y-473455D03*
D16*
G01*
X1050899Y1371600D03*
G01*
X650900Y1371600D03*
G01*
X851560Y1371600D03*
D17*
G01*
X440893Y1371600D03*
G01*
X1260906Y1371600D03*
D18*
G01*
X-1365402Y667893D03*
G01*
X-1365402Y572896D03*
G01*
X-1365402Y387883D03*
G01*
X-1365402Y297891D03*
G01*
X-1365402Y207873D03*
G01*
X-1365402Y112877D03*
G01*
X-1365402Y17881D03*
G01*
X-1225397Y17881D03*
G01*
X-1225397Y112877D03*
G01*
X-1225397Y297891D03*
G01*
X-1225397Y387883D03*
G01*
X-1225397Y477875D03*
G01*
X-1225397Y572896D03*
G01*
X-1225397Y667893D03*
D19*
G01*
X-1102410Y142900D03*
G01*
X-1102410Y542899D03*
G01*
X-1488389Y142900D03*
G01*
X-1488389Y542899D03*
D20*
G01*
X-1790700Y355600D03*
G01*
X3111500Y1460500D03*
G01*
X3086100Y-1016000D03*
D21*
G01*
X-127812Y737387D03*
G01*
X-127812Y837387D03*
G01*
X-227812Y837387D03*
G01*
X-227812Y737387D03*
G01*
X279400Y-63500D03*
G01*
X-393700Y1130300D03*
G01*
X-812800Y1130300D03*
D22*
G01*
X-203200Y596900D03*
D23*
G01*
X-1028700Y292100D03*
G01*
X787400Y-431800D03*
G01*
X787400Y-800100D03*
G01*
X482600Y203200D03*
G01*
X1168400Y-698500D03*
G01*
X88900Y-76200D03*
D22*
G01*
X368300Y-304800D03*
D23*
G01*
X76200Y63500D03*
G01*
X584200Y241300D03*
G01*
X1257300Y-571500D03*
D22*
G01*
X165100Y330200D03*
G01*
X1485900Y1054100D03*
D23*
G01*
X1066800Y723900D03*
G01*
X1816100Y876300D03*
G01*
X2451100Y-901700D03*
D22*
G01*
X1587500Y889000D03*
G01*
X1587500Y152400D03*
D23*
G01*
X2451100Y-1155700D03*
G01*
X546100Y-1219200D03*
G01*
X381000Y-927100D03*
G01*
X368300Y-647700D03*
G01*
X177800Y482600D03*
G01*
X368300Y-495300D03*
D22*
G01*
X2552700Y-1016000D03*
D23*
G01*
X1181100Y1028700D03*
G01*
X673100Y1059510D03*
M02*
