G04 Layer: BottomSolderMaskLayer*
G04 EasyEDA v6.5.38, 2023-12-02 23:03:57*
G04 3574156a907d4d7c87788ecda130693a,c7ad1a84f3dd4ba2a6b1e1313e4bac77,10*
G04 Gerber Generator version 0.2*
G04 Scale: 100 percent, Rotated: No, Reflected: No *
G04 Dimensions in millimeters *
G04 leading zeros omitted , absolute positions ,4 integer and 5 decimal *
%FSLAX45Y45*%
%MOMM*%

%AMMACRO1*1,1,$1,$2,$3*1,1,$1,$4,$5*1,1,$1,0-$2,0-$3*1,1,$1,0-$4,0-$5*20,1,$1,$2,$3,$4,$5,0*20,1,$1,$4,$5,0-$2,0-$3,0*20,1,$1,0-$2,0-$3,0-$4,0-$5,0*20,1,$1,0-$4,0-$5,$2,$3,0*4,1,4,$2,$3,$4,$5,0-$2,0-$3,0-$4,0-$5,$2,$3,0*%
%ADD10C,2.1016*%
%ADD11O,1.7015460000000002X1.4015720000000003*%
%ADD12O,2.101596X3.1015939999999995*%
%ADD13C,0.8016*%
%ADD14O,1.1015979999999999X2.101596*%
%ADD15MACRO1,0.2032X0.725X-0.58X0.725X0.58*%
%ADD16MACRO1,0.1016X1.7X-1.25X1.7X1.25*%
%ADD17O,2.1466048X0.68961*%
%ADD18C,3.2032*%

%LPD*%
D10*
G01*
X-1104900Y-974344D03*
G01*
X-1104900Y-473455D03*
D11*
G01*
X1050899Y1371600D03*
G01*
X650900Y1371600D03*
G01*
X851560Y1371600D03*
D12*
G01*
X440893Y1371600D03*
G01*
X1260906Y1371600D03*
D13*
G01*
X-1365402Y667893D03*
G01*
X-1365402Y572896D03*
G01*
X-1365402Y387883D03*
G01*
X-1365402Y297891D03*
G01*
X-1365402Y207873D03*
G01*
X-1365402Y112877D03*
G01*
X-1365402Y17881D03*
G01*
X-1225397Y17881D03*
G01*
X-1225397Y112877D03*
G01*
X-1225397Y297891D03*
G01*
X-1225397Y387883D03*
G01*
X-1225397Y477875D03*
G01*
X-1225397Y572896D03*
G01*
X-1225397Y667893D03*
D14*
G01*
X-1102410Y142900D03*
G01*
X-1102410Y542899D03*
G01*
X-1488389Y142900D03*
G01*
X-1488389Y542899D03*
D15*
G01*
X-50800Y-977900D03*
G01*
X-50800Y-774700D03*
G01*
X546100Y-990600D03*
G01*
X546100Y-787400D03*
G01*
X254000Y-990600D03*
G01*
X254000Y-787400D03*
D16*
G01*
X-431787Y-401206D03*
G01*
X-431787Y-1021205D03*
D17*
G01*
X543940Y-177800D03*
G01*
X543940Y-304800D03*
G01*
X543940Y-431800D03*
G01*
X543940Y-558800D03*
G01*
X-10540Y-177800D03*
G01*
X-10540Y-304800D03*
G01*
X-10540Y-431800D03*
G01*
X-10540Y-558800D03*
D18*
G01*
X-1790700Y355600D03*
G01*
X3111500Y1460500D03*
G01*
X3086100Y-1016000D03*
M02*
