G04 Layer: TopLayer*
G04 EasyEDA v6.5.38, 2023-12-02 23:03:57*
G04 3574156a907d4d7c87788ecda130693a,c7ad1a84f3dd4ba2a6b1e1313e4bac77,10*
G04 Gerber Generator version 0.2*
G04 Scale: 100 percent, Rotated: No, Reflected: No *
G04 Dimensions in millimeters *
G04 leading zeros omitted , absolute positions ,4 integer and 5 decimal *
%FSLAX45Y45*%
%MOMM*%

%AMMACRO1*21,1,$1,$2,0,0,$3*%
%ADD10C,0.5000*%
%ADD11C,0.2030*%
%ADD12C,0.2540*%
%ADD13C,0.4700*%
%ADD14C,0.5080*%
%ADD15C,0.3050*%
%ADD16C,0.3560*%
%ADD17R,2.1000X0.9500*%
%ADD18R,0.9500X2.1000*%
%ADD19R,1.3300X1.3300*%
%ADD20R,1.1600X1.4500*%
%ADD21R,1.4500X1.1600*%
%ADD22MACRO1,0.54X0.7901X-90.0000*%
%ADD23MACRO1,0.54X0.7901X90.0000*%
%ADD24MACRO1,0.54X0.7901X0.0000*%
%ADD25R,0.5400X0.7901*%
%ADD26MACRO1,1.728X1.485X0.0000*%
%ADD27R,1.7280X1.4850*%
%ADD28R,0.9000X0.8000*%
%ADD29MACRO1,1.728X1.485X-90.0000*%
%ADD30MACRO1,1.35X1.41X0.0000*%
%ADD31R,1.3500X1.4100*%
%ADD32R,1.6000X0.8000*%
%ADD33R,3.3000X2.4000*%
%ADD34R,2.0000X2.0000*%
%ADD35R,0.5000X2.5000*%
%ADD36R,3.0000X3.2000*%
%ADD37R,1.2000X1.8000*%
%ADD38R,1.0000X0.8000*%
%ADD39MACRO1,1.377X1.1325X0.0000*%
%ADD40R,1.3770X1.1325*%
%ADD41MACRO1,0.54X0.5656X-90.0000*%
%ADD42MACRO1,0.54X0.5656X0.0000*%
%ADD43R,0.5400X0.5657*%
%ADD44MACRO1,0.54X0.5656X90.0000*%
%ADD45MACRO1,0.864X0.8065X0.0000*%
%ADD46R,0.8640X0.8065*%
%ADD47R,2.0000X1.3500*%
%ADD48O,2.0379944X0.5739892*%
%ADD49MACRO1,2X2X0.0000*%
%ADD50C,0.1850*%
%ADD51C,2.0000*%
%ADD52O,1.599946X1.2999720000000001*%
%ADD53O,1.9999959999999999X2.999994*%
%ADD54C,0.7000*%
%ADD55O,0.9999979999999999X1.9999959999999999*%
%ADD56C,3.0000*%
%ADD57C,0.6096*%
%ADD58C,1.0000*%
%ADD59C,0.6100*%
%ADD60C,0.0136*%

%LPD*%
D10*
X1041400Y869797D02*
G01*
X1034897Y876300D01*
X546100Y876300D01*
D11*
X290195Y856297D02*
G01*
X290195Y758926D01*
X355600Y693521D01*
D12*
X177800Y32918D02*
G01*
X188086Y22631D01*
X188086Y-479196D01*
D10*
X798499Y685800D02*
G01*
X982497Y869797D01*
X1041400Y869797D01*
D13*
X1511300Y1250442D02*
G01*
X1416558Y1155700D01*
X965200Y1155700D01*
X685800Y876300D01*
X661149Y876300D01*
D14*
X-660400Y685800D02*
G01*
X-571500Y596900D01*
X-454710Y596900D01*
D12*
X787400Y-800100D02*
G01*
X787400Y-838200D01*
X849452Y-900252D01*
X966901Y-900252D01*
X954272Y-912881D01*
X954272Y-914145D01*
D11*
X330200Y856234D02*
G01*
X330200Y825500D01*
X355600Y800100D01*
X482600Y800100D01*
X598424Y685800D01*
D10*
X2552700Y-1016000D02*
G01*
X2563952Y-1027252D01*
X2766923Y-1027252D01*
D15*
X-1295400Y514520D02*
G01*
X-1237010Y572909D01*
X-1225397Y572909D01*
D12*
X370204Y856297D02*
G01*
X526097Y856297D01*
X546100Y876300D01*
X533400Y-177800D02*
G01*
X533400Y-304800D01*
X368300Y-469900D01*
X368300Y-495300D01*
D11*
X-635000Y1015237D02*
G01*
X-622300Y990600D01*
X-546100Y914400D01*
X-495300Y850900D01*
X-454660Y850900D01*
X370204Y896302D02*
G01*
X406400Y932497D01*
X406400Y952500D01*
D12*
X381000Y-927100D02*
G01*
X573100Y-734999D01*
X573100Y-689203D01*
X546100Y-1219200D02*
G01*
X774700Y-1219200D01*
X839647Y-1154252D01*
X966901Y-1154252D01*
X2451100Y-1155700D02*
G01*
X2452547Y-1154252D01*
X2766923Y-1154252D01*
X290195Y896302D02*
G01*
X254000Y932497D01*
X254000Y1219200D01*
X166497Y1306703D01*
X166497Y1371600D01*
D11*
X370204Y856297D02*
G01*
X399097Y856297D01*
X457200Y914400D01*
X508000Y914400D01*
X546100Y876300D01*
D10*
X1587500Y152400D02*
G01*
X2387600Y152400D01*
X2463800Y76200D01*
X2463800Y-469900D01*
X2513152Y-519252D01*
X2766923Y-519252D01*
X1478381Y889000D02*
G01*
X1587500Y889000D01*
D12*
X1066800Y723900D02*
G01*
X1143000Y800100D01*
X2324100Y800100D01*
X2578100Y1054100D01*
X2578100Y1057706D01*
X2451100Y-901700D02*
G01*
X2452547Y-900252D01*
X2766923Y-900252D01*
X1772818Y1016000D02*
G01*
X1772818Y919581D01*
X1816100Y876300D01*
X1066800Y723900D02*
G01*
X966901Y624001D01*
X966901Y496747D01*
D10*
X1485900Y1054100D02*
G01*
X1478381Y1046581D01*
X1478381Y889000D01*
X63500Y325018D02*
G01*
X68681Y330200D01*
X165100Y330200D01*
D12*
X1859381Y1016000D02*
G01*
X1888388Y1045006D01*
X2171700Y1045006D01*
X1752600Y1252118D02*
G01*
X1772818Y1231900D01*
X1772818Y1016000D01*
X1752600Y1252118D02*
G01*
X1763826Y1240891D01*
X1917700Y1240891D01*
D10*
X1511300Y1250442D02*
G01*
X1599539Y1338681D01*
X1752600Y1338681D01*
X-330200Y-88900D02*
G01*
X-330200Y63500D01*
X-241300Y152400D01*
X-63500Y152400D01*
X12700Y228600D01*
X228600Y228600D01*
X342900Y342900D01*
X596900Y342900D01*
X689508Y435508D01*
X689508Y457200D01*
D12*
X1257300Y-571500D02*
G01*
X1193800Y-635000D01*
X978154Y-635000D01*
X966901Y-646252D01*
X177800Y119481D02*
G01*
X208381Y119481D01*
X317500Y228600D01*
X355600Y266700D01*
X381000Y266700D01*
X558800Y266700D01*
X584200Y241300D01*
X76200Y63500D02*
G01*
X-76200Y-88900D01*
X-127000Y-88900D01*
D10*
X368300Y-304800D02*
G01*
X288081Y-385018D01*
X288081Y-479196D01*
D12*
X88087Y-479196D02*
G01*
X88900Y-478383D01*
X88900Y-76200D01*
X88087Y-479196D02*
G01*
X101600Y-465683D01*
X1168400Y-698500D02*
G01*
X1093647Y-773252D01*
X966901Y-773252D01*
X317500Y119481D02*
G01*
X401218Y203200D01*
X482600Y203200D01*
D10*
X689508Y457200D02*
G01*
X798499Y566191D01*
X798499Y685800D01*
X689508Y457200D02*
G01*
X689508Y181508D01*
X533400Y25400D01*
X533400Y25400D02*
G01*
X288086Y-219913D01*
X288086Y-479196D01*
D12*
X650900Y1371600D02*
G01*
X650900Y1285900D01*
X520700Y1155700D01*
X431800Y1155700D01*
X364591Y1088491D01*
X364591Y1041400D01*
D10*
X166497Y1371600D02*
G01*
X382397Y1587500D01*
X635660Y1587500D01*
X851560Y1371600D01*
D12*
X787400Y-431800D02*
G01*
X874852Y-519252D01*
X966901Y-519252D01*
D10*
X-558104Y1276609D02*
G01*
X-463113Y1371600D01*
X-293496Y1371600D01*
X-558104Y1466601D02*
G01*
X-437205Y1587500D01*
X-63500Y1587500D01*
X152400Y1371600D01*
X166497Y1371600D01*
D12*
X-838200Y703579D02*
G01*
X-883920Y703579D01*
X-1016000Y571500D01*
X-1016000Y393700D01*
X-1054100Y355600D01*
X-1103109Y355600D01*
X-1225397Y477888D01*
X-1028700Y292100D02*
G01*
X-939800Y381000D01*
X-939800Y444500D01*
X-896518Y487781D01*
X-838200Y487781D01*
D10*
X99110Y596900D02*
G01*
X-203200Y596900D01*
X-393700Y1130300D02*
G01*
X-12700Y1130300D01*
X99110Y1018489D01*
X99110Y977900D01*
X-985304Y1220185D02*
G01*
X-895418Y1130300D01*
X-812800Y1130300D01*
D15*
X-1257300Y812800D02*
G01*
X-1021842Y812800D01*
D14*
X-660405Y685794D02*
G01*
X-660405Y369694D01*
X-1021902Y812794D02*
G01*
X-787400Y812800D01*
X-660400Y685800D01*
X-787405Y812794D01*
X-1021902Y812794D02*
G01*
X-558111Y1276586D01*
X-660400Y369696D02*
G01*
X-646303Y355600D01*
X-438657Y355600D01*
D15*
X99110Y596900D02*
G01*
X63500Y561289D01*
X63500Y411581D01*
X-1365402Y112890D02*
G01*
X-1295400Y182892D01*
X-1225397Y112890D02*
G01*
X-1295400Y182892D01*
X-1295400Y642912D01*
X-1365402Y572909D02*
G01*
X-1295400Y502907D01*
X-1295400Y454380D01*
X-1365402Y572909D02*
G01*
X-1295400Y642912D01*
X-1225397Y572909D02*
G01*
X-1295400Y642912D01*
X-1295400Y774700D01*
X-1257300Y812800D01*
X-1244307Y812800D01*
D14*
X-985265Y1220215D02*
G01*
X-889000Y1219200D01*
X-788162Y1320037D01*
X-788162Y1371600D01*
D16*
X-1365402Y112890D02*
G01*
X-1225397Y112890D01*
D11*
X317500Y32918D02*
G01*
X317500Y-25400D01*
X279400Y-63500D01*
X364591Y1041400D02*
G01*
X330200Y1007008D01*
X330200Y896302D01*
D17*
G01*
X2766898Y-1154252D03*
G01*
X2766898Y-1027252D03*
G01*
X2766898Y-900252D03*
G01*
X2766898Y-773252D03*
G01*
X2766898Y-646252D03*
G01*
X2766898Y-519252D03*
G01*
X2766898Y-392252D03*
G01*
X2766898Y-265252D03*
G01*
X2766898Y-138252D03*
G01*
X2766898Y-11252D03*
G01*
X2766898Y115747D03*
G01*
X2766898Y242747D03*
G01*
X2766898Y369747D03*
G01*
X2766898Y496747D03*
D18*
G01*
X2438400Y646252D03*
G01*
X2311400Y646252D03*
G01*
X2184400Y646252D03*
G01*
X2057400Y646252D03*
G01*
X1930400Y646252D03*
G01*
X1803400Y646252D03*
G01*
X1676400Y646252D03*
G01*
X1549400Y646252D03*
G01*
X1422400Y646252D03*
G01*
X1295400Y646252D03*
D17*
G01*
X966901Y496747D03*
G01*
X966901Y369747D03*
G01*
X966901Y242747D03*
G01*
X966901Y115747D03*
G01*
X966901Y-11252D03*
G01*
X966901Y-138252D03*
G01*
X966901Y-265252D03*
G01*
X966901Y-392252D03*
G01*
X966901Y-519252D03*
G01*
X966901Y-646252D03*
G01*
X966901Y-773252D03*
G01*
X966901Y-900252D03*
G01*
X966901Y-1027252D03*
G01*
X966901Y-1154252D03*
D19*
G01*
X2016886Y-385851D03*
G01*
X2200376Y-385826D03*
G01*
X1833372Y-385826D03*
G01*
X1833372Y-569340D03*
G01*
X2016886Y-569340D03*
G01*
X2200376Y-569340D03*
G01*
X2200376Y-202336D03*
G01*
X2016886Y-202336D03*
G01*
X1833372Y-202336D03*
D20*
G01*
X-127000Y-88900D03*
G01*
X-330200Y-88900D03*
D21*
G01*
X533400Y-177800D03*
G01*
X533400Y25400D03*
D22*
G01*
X364594Y1041400D03*
G01*
X473605Y1041400D03*
D23*
G01*
X689505Y457200D03*
G01*
X580494Y457200D03*
D24*
G01*
X1917700Y1240894D03*
D25*
G01*
X1917700Y1349908D03*
D26*
G01*
X1511300Y1250449D03*
D27*
G01*
X1511300Y1568957D03*
D28*
G01*
X1041400Y869797D03*
G01*
X1041400Y1009802D03*
D29*
G01*
X-438650Y355600D03*
G01*
X-120149Y355600D03*
D30*
G01*
X-660400Y369699D03*
D31*
G01*
X-660400Y163703D03*
D32*
G01*
X-985316Y1220190D03*
G01*
X-985316Y1345158D03*
D33*
G01*
X-1275283Y1595196D03*
G01*
X-1275283Y970203D03*
D34*
G01*
X-293496Y1371600D03*
G01*
X166497Y1371600D03*
D35*
G01*
X-211912Y-479196D03*
G01*
X-111912Y-479196D03*
G01*
X-11912Y-479196D03*
G01*
X88112Y-479196D03*
G01*
X188112Y-479196D03*
G01*
X288086Y-479196D03*
D36*
G01*
X573100Y-689203D03*
G01*
X-496900Y-689203D03*
D37*
G01*
X598500Y685800D03*
G01*
X798499Y685800D03*
D38*
G01*
X-558088Y1466595D03*
G01*
X-788111Y1371600D03*
G01*
X-558088Y1276604D03*
D39*
G01*
X355600Y500273D03*
D40*
G01*
X355600Y693521D03*
D41*
G01*
X1772817Y1016000D03*
G01*
X1859382Y1016000D03*
D42*
G01*
X1752600Y1338682D03*
D43*
G01*
X1752600Y1252118D03*
D42*
G01*
X177800Y32917D03*
D43*
G01*
X177800Y119481D03*
D42*
G01*
X317500Y32917D03*
D43*
G01*
X317500Y119481D03*
D44*
G01*
X1478382Y889000D03*
G01*
X1391817Y889000D03*
D42*
G01*
X63500Y411582D03*
D43*
G01*
X63500Y325018D03*
D42*
G01*
X-838200Y617117D03*
D43*
G01*
X-838200Y703681D03*
D42*
G01*
X-838200Y401217D03*
D43*
G01*
X-838200Y487781D03*
D45*
G01*
X-635000Y1015124D03*
D46*
G01*
X-635000Y864463D03*
D47*
G01*
X2578100Y1057706D03*
G01*
X2578100Y1507693D03*
G01*
X2171700Y1494993D03*
G01*
X2171700Y1045006D03*
D48*
G01*
X-454710Y977900D03*
G01*
X-454710Y850900D03*
G01*
X-454710Y723900D03*
G01*
X-454710Y596900D03*
G01*
X99110Y977900D03*
G01*
X99110Y850900D03*
G01*
X99110Y723900D03*
G01*
X99110Y596900D03*
D49*
G01*
X-177800Y787400D03*
D50*
G01*
X290195Y856284D03*
G01*
X290195Y896289D03*
G01*
X330200Y856284D03*
G01*
X330200Y896289D03*
G01*
X370204Y856284D03*
G01*
X370204Y896289D03*
D51*
G01*
X-1104900Y-974344D03*
G01*
X-1104900Y-473455D03*
D52*
G01*
X1050899Y1371600D03*
G01*
X650900Y1371600D03*
G01*
X851560Y1371600D03*
D53*
G01*
X440893Y1371600D03*
G01*
X1260906Y1371600D03*
D54*
G01*
X-1365402Y667893D03*
G01*
X-1365402Y572896D03*
G01*
X-1365402Y387883D03*
G01*
X-1365402Y297891D03*
G01*
X-1365402Y207873D03*
G01*
X-1365402Y112877D03*
G01*
X-1365402Y17881D03*
G01*
X-1225397Y17881D03*
G01*
X-1225397Y112877D03*
G01*
X-1225397Y297891D03*
G01*
X-1225397Y387883D03*
G01*
X-1225397Y477875D03*
G01*
X-1225397Y572896D03*
G01*
X-1225397Y667893D03*
D55*
G01*
X-1102410Y142900D03*
G01*
X-1102410Y542899D03*
G01*
X-1488389Y142900D03*
G01*
X-1488389Y542899D03*
D56*
G01*
X-1790700Y355600D03*
G01*
X3111500Y1460500D03*
G01*
X3086100Y-1016000D03*
D57*
G01*
X-127812Y737387D03*
G01*
X-127812Y837387D03*
G01*
X-227812Y837387D03*
G01*
X-227812Y737387D03*
G01*
X279400Y-63500D03*
G01*
X-393700Y1130300D03*
G01*
X-812800Y1130300D03*
D58*
G01*
X-203200Y596900D03*
D59*
G01*
X-1028700Y292100D03*
G01*
X787400Y-431800D03*
G01*
X787400Y-800100D03*
G01*
X482600Y203200D03*
G01*
X1168400Y-698500D03*
G01*
X88900Y-76200D03*
D58*
G01*
X368300Y-304800D03*
D59*
G01*
X76200Y63500D03*
G01*
X584200Y241300D03*
G01*
X1257300Y-571500D03*
D58*
G01*
X165100Y330200D03*
G01*
X1485900Y1054100D03*
D59*
G01*
X1066800Y723900D03*
G01*
X1816100Y876300D03*
G01*
X2451100Y-901700D03*
D58*
G01*
X1587500Y889000D03*
G01*
X1587500Y152400D03*
D59*
G01*
X2451100Y-1155700D03*
G01*
X546100Y-1219200D03*
G01*
X381000Y-927100D03*
G01*
X368300Y-647700D03*
G01*
X177800Y482600D03*
G01*
X368300Y-495300D03*
D58*
G01*
X2552700Y-1016000D03*
D59*
G01*
X1181100Y1028700D03*
G01*
X673100Y1059510D03*
M02*
